<svg width="1360" height="285" viewBox="0 0 1360 285" fill="none" xmlns="http://www.w3.org/2000/svg">
<rect width="1360" height="285" fill="#D7E1F3"/>
<g opacity="0.3">
<path d="M1081.66 166.373C1082.18 165.981 1082.77 165.706 1083.4 165.568C1084.03 165.43 1084.68 165.432 1085.31 165.575C1085.94 165.717 1086.54 165.997 1087.05 166.393C1087.56 166.79 1087.98 167.294 1088.27 167.87L1103.81 165.625L1100.33 173.037L1086.11 174.033C1085.11 174.466 1083.99 174.518 1082.96 174.179C1081.93 173.84 1081.06 173.133 1080.51 172.192C1079.96 171.251 1079.78 170.141 1079.99 169.073C1080.2 168.004 1080.8 167.05 1081.66 166.392V166.373Z" fill="#9F616A"/>
<path d="M881.08 31.1866C883.334 31.1866 885.161 29.3539 885.161 27.0933C885.161 24.8326 883.334 23 881.08 23C878.827 23 877 24.8326 877 27.0933C877 29.3539 878.827 31.1866 881.08 31.1866Z" fill="#005DDE"/>
<path d="M897.889 24.9755C897.344 24.9985 896.829 25.2319 896.452 25.6268C896.074 26.0218 895.863 26.5479 895.863 27.0951C895.863 27.6424 896.074 28.1684 896.452 28.5634C896.829 28.9584 897.344 29.1918 897.889 29.2147H997.518C998.064 29.2028 998.585 28.979 998.971 28.5901C999.357 28.2013 999.577 27.6778 999.586 27.1293C999.596 26.5809 999.393 26.0502 999.02 25.6486C998.648 25.2471 998.135 25.0058 997.589 24.9755H897.889Z" fill="#005DDE"/>
<path d="M881.08 51.0693C883.334 51.0693 885.161 49.2367 885.161 46.976C885.161 44.7153 883.334 42.8827 881.08 42.8827C878.827 42.8827 877 44.7153 877 46.976C877 49.2367 878.827 51.0693 881.08 51.0693Z" fill="#005DDE"/>
<path d="M897.887 44.8583C897.602 44.8463 897.318 44.8922 897.051 44.9933C896.784 45.0944 896.541 45.2486 896.335 45.4466C896.129 45.6446 895.965 45.8823 895.853 46.1455C895.741 46.4087 895.684 46.6918 895.684 46.9779C895.684 47.264 895.741 47.5471 895.853 47.8103C895.965 48.0734 896.129 48.3112 896.335 48.5092C896.541 48.7072 896.784 48.8614 897.051 48.9625C897.318 49.0636 897.602 49.1095 897.887 49.0975H997.516C997.799 49.1142 998.082 49.0737 998.35 48.9782C998.617 48.8828 998.862 48.7343 999.071 48.5418C999.28 48.3493 999.448 48.1166 999.565 47.8575C999.683 47.5985 999.747 47.3184 999.754 47.034C999.762 46.7495 999.712 46.4665 999.608 46.2018C999.504 45.9371 999.348 45.696 999.149 45.4931C998.95 45.2901 998.713 45.1293 998.451 45.0202C998.189 44.9112 997.907 44.8561 997.624 44.8583H897.887Z" fill="#005DDE"/>
<path d="M881.08 70.952C883.334 70.952 885.161 69.1194 885.161 66.8587C885.161 64.5981 883.334 62.7654 881.08 62.7654C878.827 62.7654 877 64.5981 877 66.8587C877 69.1194 878.827 70.952 881.08 70.952Z" fill="#F7B4C4"/>
<path d="M897.887 64.7411C897.602 64.7291 897.318 64.775 897.051 64.8761C896.784 64.9772 896.541 65.1314 896.335 65.3294C896.129 65.5274 895.965 65.7651 895.853 66.0283C895.741 66.2914 895.684 66.5746 895.684 66.8607C895.684 67.1468 895.741 67.4299 895.853 67.6931C895.965 67.9562 896.129 68.1939 896.335 68.3919C896.541 68.59 896.784 68.7441 897.051 68.8452C897.318 68.9464 897.602 68.9923 897.887 68.9803H997.516C997.799 68.997 998.082 68.9565 998.35 68.861C998.617 68.7655 998.862 68.6171 999.071 68.4246C999.28 68.2321 999.448 67.9994 999.565 67.7403C999.683 67.4813 999.747 67.2012 999.754 66.9168C999.762 66.6323 999.712 66.3493 999.608 66.0846C999.504 65.8199 999.348 65.5788 999.149 65.3758C998.95 65.1728 998.713 65.012 998.451 64.903C998.189 64.7939 997.907 64.7389 997.624 64.7411H897.887Z" fill="#F7B4C4"/>
<path d="M881.08 90.8385C883.334 90.8385 885.161 89.0059 885.161 86.7452C885.161 84.4846 883.334 82.6519 881.08 82.6519C878.827 82.6519 877 84.4846 877 86.7452C877 89.0059 878.827 90.8385 881.08 90.8385Z" fill="#005DDE"/>
<path d="M897.887 84.6238C897.358 84.6684 896.866 84.9105 896.507 85.302C896.148 85.6935 895.949 86.2059 895.949 86.7378C895.949 87.2696 896.148 87.782 896.507 88.1735C896.866 88.565 897.358 88.8071 897.887 88.8517H997.515C998.062 88.8398 998.583 88.616 998.968 88.2271C999.354 87.8383 999.574 87.3148 999.584 86.7663C999.593 86.2179 999.39 85.6872 999.017 85.2857C998.645 84.8841 998.132 84.6429 997.586 84.6125H897.887V84.6238Z" fill="#005DDE"/>
<path d="M881.08 110.721C883.334 110.721 885.161 108.889 885.161 106.628C885.161 104.367 883.334 102.535 881.08 102.535C878.827 102.535 877 104.367 877 106.628C877 108.889 878.827 110.721 881.08 110.721Z" fill="#F7B4C4"/>
<path d="M897.889 104.507C897.344 104.53 896.829 104.763 896.452 105.158C896.074 105.553 895.863 106.079 895.863 106.626C895.863 107.173 896.074 107.699 896.452 108.094C896.829 108.489 897.344 108.723 897.889 108.746H997.518C997.801 108.762 998.085 108.722 998.352 108.626C998.619 108.531 998.864 108.383 999.073 108.19C999.282 107.998 999.45 107.765 999.568 107.506C999.685 107.247 999.749 106.967 999.756 106.682C999.764 106.398 999.714 106.115 999.61 105.85C999.506 105.585 999.35 105.344 999.151 105.141C998.952 104.938 998.715 104.778 998.453 104.668C998.191 104.559 997.91 104.504 997.626 104.507H897.889Z" fill="#F7B4C4"/>
<path d="M881.08 130.604C883.334 130.604 885.161 128.771 885.161 126.511C885.161 124.25 883.334 122.417 881.08 122.417C878.827 122.417 877 124.25 877 126.511C877 128.771 878.827 130.604 881.08 130.604Z" fill="#005DDE"/>
<path d="M897.889 124.397C897.344 124.42 896.829 124.653 896.452 125.048C896.074 125.443 895.863 125.969 895.863 126.516C895.863 127.064 896.074 127.59 896.452 127.985C896.829 128.38 897.344 128.613 897.889 128.636H997.518C997.795 128.643 998.071 128.595 998.331 128.495C998.59 128.395 998.827 128.245 999.028 128.054C999.229 127.862 999.391 127.632 999.503 127.378C999.616 127.123 999.678 126.849 999.685 126.571C999.692 126.292 999.644 126.015 999.545 125.755C999.445 125.495 999.295 125.258 999.104 125.056C998.913 124.854 998.684 124.692 998.43 124.579C998.177 124.466 997.903 124.404 997.626 124.397H897.889Z" fill="#005DDE"/>
<path d="M881.08 150.487C883.334 150.487 885.161 148.654 885.161 146.393C885.161 144.133 883.334 142.3 881.08 142.3C878.827 142.3 877 144.133 877 146.393C877 148.654 878.827 150.487 881.08 150.487Z" fill="#F7B4C4"/>
<path d="M897.888 144.272C897.327 144.272 896.789 144.496 896.393 144.893C895.996 145.291 895.773 145.831 895.773 146.393C895.773 146.956 895.996 147.496 896.393 147.894C896.789 148.291 897.327 148.515 897.888 148.515H997.517C998.063 148.503 998.584 148.279 998.97 147.89C999.356 147.502 999.576 146.978 999.585 146.43C999.594 145.881 999.392 145.35 999.019 144.949C998.647 144.547 998.134 144.306 997.588 144.276H897.888V144.272Z" fill="#F7B4C4"/>
<path d="M1206.99 218.771C1206.52 220.552 1196.55 257.271 1167.21 272.051C1165.99 272.669 1164.73 273.247 1163.43 273.783L1163.13 273.315L1162.75 272.769L1163.25 272.878C1163.75 272.989 1164.27 272.923 1164.73 272.692C1165.19 272.46 1165.56 272.076 1165.77 271.605C1176.01 266.719 1183.65 248.34 1183.65 226.482C1183.69 218.874 1182.7 211.295 1180.71 203.954L1181.03 202.457L1182.02 197.967C1183.16 195.273 1184.26 192.624 1185.29 190.039C1190.93 175.978 1194.77 163.897 1194.08 158.37C1194.43 160.525 1201.32 204.496 1183.66 243.832C1194.74 234.07 1205.51 223.605 1206.99 218.771Z" fill="#F7B4C4"/>
<path d="M1105.52 179.712C1096.8 179.712 1089.15 188.853 1084.93 202.502C1084.63 203.46 1084.35 204.444 1084.09 205.443C1082.32 212.441 1081.44 219.636 1081.48 226.856C1081.48 252.853 1092.27 274 1105.54 274C1118.8 274 1129.59 252.853 1129.59 226.856C1129.59 200.86 1118.79 179.712 1105.52 179.712ZM1105.52 273.252C1092.67 273.252 1082.21 252.437 1082.21 226.856C1082.17 219.605 1083.07 212.38 1084.87 205.357C1085.12 204.419 1085.38 203.499 1085.66 202.596C1089.76 189.324 1097.13 180.461 1105.52 180.461C1118.37 180.461 1128.83 201.275 1128.83 226.856C1128.83 252.437 1118.37 273.252 1105.52 273.252Z" fill="#CCCCCC"/>
<path d="M1111.3 254.114C1106.7 254.114 1103.1 242.14 1103.1 226.856C1103.1 211.572 1106.7 199.599 1111.3 199.599C1115.91 199.599 1119.51 211.572 1119.51 226.856C1119.51 242.14 1115.91 254.114 1111.3 254.114ZM1111.3 200.347C1107.26 200.347 1103.84 212.488 1103.84 226.856C1103.84 241.224 1107.26 253.365 1111.3 253.365C1115.35 253.365 1118.76 241.228 1118.76 226.856C1118.76 212.485 1115.34 200.351 1111.3 200.351V200.347Z" fill="#CCCCCC"/>
<path d="M1096.56 266.438H1089.69L1086.42 239.843H1096.57L1096.56 266.438Z" fill="#9F616A"/>
<path d="M1098.32 273.121H1076.18V272.84C1076.18 271.704 1076.4 270.578 1076.83 269.529C1077.26 268.479 1077.9 267.525 1078.7 266.721C1079.5 265.917 1080.45 265.28 1081.5 264.845C1082.54 264.41 1083.67 264.186 1084.8 264.186H1098.34L1098.32 273.121Z" fill="#2F2E41"/>
<path d="M1076.05 266.438H1069.18L1068.11 246.155H1076.05L1076.05 266.438Z" fill="#9F616A"/>
<path d="M1077.8 273.121H1055.66V272.84C1055.66 271.704 1055.88 270.578 1056.32 269.529C1056.75 268.479 1057.38 267.525 1058.18 266.721C1058.99 265.917 1059.94 265.28 1060.98 264.845C1062.03 264.41 1063.15 264.186 1064.28 264.186H1077.82L1077.8 273.121Z" fill="#2F2E41"/>
<path d="M1112.24 233.116C1113.99 233.116 1115.41 230.313 1115.41 226.856C1115.41 223.399 1113.99 220.596 1112.24 220.596C1110.49 220.596 1109.07 223.399 1109.07 226.856C1109.07 230.313 1110.49 233.116 1112.24 233.116Z" fill="#CCCCCC"/>
<path d="M1110.75 133.691L1156.43 133.504V153.708L1110.75 155.777V133.691Z" fill="#3F3D56"/>
<path d="M1061.7 202.184L1060.95 202.143L1063.21 160.986H1109.44V161.734H1063.93L1061.7 202.184Z" fill="#CCCCCC"/>
<path d="M1140.49 202.222C1140.21 203.125 1139.95 204.045 1139.7 204.983L1138.92 205.069L1114.67 207.774L1059.1 202.162L1116.91 199.168L1139.77 202.128L1140.49 202.222Z" fill="#3F3D56"/>
<path d="M1099.26 182.668L1097.9 186.623C1097.9 186.623 1075.55 179.772 1071.76 193.859C1067.97 207.946 1067.73 255.883 1067.73 255.883L1077.06 255.509L1086.34 207.4L1130.93 200.351L1129.51 175.282L1099.26 182.668Z" fill="#2F2E41"/>
<path d="M1117.46 182.893C1117.46 182.893 1086.87 176.532 1084.63 191.872C1082.4 207.213 1087.5 255.509 1087.5 255.509L1096.45 255.135C1096.45 255.135 1106.64 212.825 1102.91 202.349L1128.15 200.785C1136.86 200.242 1143.98 193.339 1144.48 184.599C1144.67 181.254 1143.83 178.216 1140.95 176.532C1132 171.294 1115.59 171.294 1115.59 171.294L1117.46 182.893Z" fill="#2F2E41"/>
<path d="M1156.81 159.134H1156.06V130.574L1168.1 134.08L1167.89 134.798L1156.81 131.569V159.134Z" fill="#3F3D56"/>
<path d="M1181.05 202.472C1176.85 188.628 1169.15 179.338 1160.35 179.338C1151.63 179.338 1143.98 188.479 1139.76 202.128C1139.46 203.086 1139.18 204.07 1138.92 205.069C1137.15 212.067 1136.27 219.262 1136.31 226.482C1136.31 252.478 1147.1 273.626 1160.37 273.626C1161.3 273.626 1162.23 273.521 1163.14 273.315C1172.09 271.295 1179.55 259.617 1182.75 243.757C1183.88 238.07 1184.44 232.284 1184.43 226.486C1184.41 217.719 1183.18 209.506 1181.05 202.472ZM1165.79 271.605C1164.09 272.432 1162.24 272.867 1160.35 272.878C1147.5 272.878 1137.04 252.063 1137.04 226.482C1137.01 219.231 1137.9 212.006 1139.7 204.983C1139.95 204.044 1140.21 203.112 1140.49 202.222C1144.59 188.95 1151.96 180.086 1160.35 180.086C1169.1 180.086 1176.74 189.728 1180.73 203.954C1182.72 211.295 1183.71 218.874 1183.66 226.482C1183.66 248.34 1176.03 266.719 1165.79 271.605Z" fill="#CCCCCC"/>
<path d="M1166.13 253.739C1161.53 253.739 1157.93 241.766 1157.93 226.482C1157.93 211.198 1161.53 199.225 1166.13 199.225C1170.73 199.225 1174.34 211.198 1174.34 226.482C1174.34 241.766 1170.73 253.739 1166.13 253.739ZM1166.13 199.973C1162.09 199.973 1158.67 212.114 1158.67 226.482C1158.67 240.85 1162.09 252.991 1166.13 252.991C1170.17 252.991 1173.59 240.853 1173.59 226.482C1173.59 212.111 1170.17 199.977 1166.13 199.977V199.973Z" fill="#CCCCCC"/>
<path d="M1167.06 232.742C1168.82 232.742 1170.24 229.939 1170.24 226.482C1170.24 223.025 1168.82 220.222 1167.06 220.222C1165.31 220.222 1163.89 223.025 1163.89 226.482C1163.89 229.939 1165.31 232.742 1167.06 232.742Z" fill="#CCCCCC"/>
<path d="M1162.03 129.949L1169.86 132.943L1168.37 137.058L1162.03 134.439V129.949Z" fill="#3F3D56"/>
<path d="M1074 159.134V165.12H1096.23V159.53L1074 159.134Z" fill="#CCCCCC"/>
<path d="M1128.8 129.366C1128.79 131.017 1128.62 132.663 1128.3 134.282L1126.06 166.149L1103.6 172.641L1096.98 174.556L1096.68 172.79L1095.56 166.216L1095.21 164.181L1103.1 162.755L1115.9 160.443L1118.92 123.401C1118.92 123.401 1127.96 123.495 1128.21 124.479C1128.61 126.069 1128.81 127.703 1128.81 129.343L1128.8 129.366Z" fill="#F7B4C4"/>
<path d="M1148.98 91.3886C1147.81 89.1055 1146.12 87.132 1144.05 85.6293C1141.97 84.1266 1139.57 83.1371 1137.05 82.7418C1135.97 82.5779 1134.88 82.5203 1133.79 82.5697C1126.33 82.9438 1119.94 88.4402 1118.56 96.2339C1118.56 96.3312 1118.53 96.421 1118.51 96.5145L1118.49 96.6604L1116.05 112.697L1117.77 112.959L1124.45 113.98L1138.43 116.117L1148.2 117.613L1150.64 101.573C1151.18 98.088 1150.6 94.521 1148.98 91.3886Z" fill="#2F2E41"/>
<path d="M1131.63 111.683C1138.41 111.683 1143.9 106.173 1143.9 99.3768C1143.9 92.5804 1138.41 87.0708 1131.63 87.0708C1124.86 87.0708 1119.36 92.5804 1119.36 99.3768C1119.36 106.173 1124.86 111.683 1131.63 111.683Z" fill="#9F616A"/>
<path d="M1146.41 122.38L1145.92 148.242C1145.81 148.365 1145.7 148.489 1145.6 148.616C1140.49 154.524 1139.5 162.95 1139.71 171.065C1139.71 171.963 1139.76 172.858 1139.81 173.744C1136.08 175.398 1132.15 177.112 1128.25 178.481C1127.5 178.747 1126.72 179.001 1125.97 179.23C1119.68 181.168 1113.59 181.916 1108.57 179.604C1106.74 178.759 1105.11 177.542 1103.78 176.031L1103.6 172.637L1108.14 163.889L1107.39 153.039C1102.78 141.346 1107.64 141.761 1111.34 126.615C1111.8 125.729 1112.46 124.961 1113.27 124.368C1114.07 123.776 1115 123.375 1115.98 123.196L1118.91 122.661L1139.1 121.606L1145.44 121.961L1146.41 122.38Z" fill="#F7B4C4"/>
<path d="M1147.39 91.3998L1142.85 100.683L1116.52 96.174C1117.12 92.7766 1118.77 89.6545 1121.24 87.244C1123.7 84.8335 1126.85 83.255 1130.25 82.7291C1133.65 82.2032 1137.13 82.7561 1140.2 84.3107C1143.28 85.8652 1145.79 88.3437 1147.39 91.3998Z" fill="#2F2E41"/>
<path d="M1092.46 156.223C1092.26 156.028 1092.01 155.908 1091.74 155.881C1091.46 155.854 1091.19 155.924 1090.96 156.077L1081.92 161.988C1081.78 162.074 1081.67 162.184 1081.58 162.313C1081.49 162.442 1081.43 162.588 1081.4 162.741C1081.37 162.894 1081.37 163.053 1081.4 163.207C1081.42 163.361 1081.48 163.507 1081.57 163.638C1081.61 163.709 1081.67 163.774 1081.73 163.833L1104.73 186.817C1104.96 187.041 1105.26 187.167 1105.58 187.167C1105.89 187.167 1106.2 187.041 1106.42 186.817L1113.96 178.99C1114.18 178.763 1114.3 178.458 1114.29 178.143C1114.29 177.828 1114.16 177.527 1113.94 177.306L1092.46 156.223Z" fill="#CCCCCC"/>
<path d="M1083.71 162.621L1084.65 162.022C1084.55 162.198 1084.51 162.403 1084.54 162.603C1084.57 162.802 1084.67 162.985 1084.82 163.121C1084.97 163.258 1085.16 163.339 1085.36 163.353C1085.56 163.367 1085.76 163.312 1085.93 163.197L1091.99 159.018C1092.18 158.883 1092.32 158.676 1092.36 158.443C1092.41 158.209 1092.35 157.968 1092.22 157.772C1092.11 157.61 1091.94 157.489 1091.75 157.427L1092.24 157.117C1092.3 157.077 1092.37 157.06 1092.45 157.069C1092.52 157.078 1092.59 157.112 1092.64 157.165L1113.03 177.262C1113.06 177.291 1113.08 177.327 1113.1 177.367C1113.11 177.406 1113.12 177.449 1113.12 177.492C1113.12 177.534 1113.11 177.577 1113.1 177.616C1113.08 177.656 1113.06 177.692 1113.03 177.722L1105.62 184.958C1105.56 185.018 1105.48 185.051 1105.4 185.051C1105.31 185.051 1105.23 185.018 1105.17 184.958L1083.65 163.122C1083.59 163.061 1083.56 162.978 1083.56 162.892C1083.56 162.806 1083.59 162.723 1083.65 162.662L1083.71 162.617V162.621Z" fill="#A4A7B2"/>
<path d="M1107.24 172.824L1100.98 178.736L1086.11 163.994L1093.65 159.066L1107.24 172.824Z" fill="#005DDE"/>
<path d="M1086.68 167.634C1086.7 167.615 1086.72 167.591 1086.73 167.564C1086.74 167.538 1086.75 167.51 1086.75 167.481C1086.75 167.452 1086.74 167.424 1086.73 167.398C1086.72 167.371 1086.7 167.348 1086.68 167.328L1085.39 166.022C1085.35 165.982 1085.29 165.96 1085.23 165.96C1085.18 165.96 1085.12 165.982 1085.08 166.022C1085.06 166.042 1085.04 166.066 1085.03 166.092C1085.02 166.118 1085.02 166.147 1085.02 166.175C1085.02 166.204 1085.02 166.232 1085.03 166.259C1085.04 166.285 1085.06 166.309 1085.08 166.329L1086.38 167.634C1086.42 167.674 1086.47 167.696 1086.53 167.696C1086.59 167.696 1086.64 167.674 1086.68 167.634Z" fill="#F7B4C4"/>
<path d="M1088.88 169.524L1087.58 168.218C1087.54 168.178 1087.48 168.156 1087.42 168.156C1087.37 168.156 1087.31 168.178 1087.27 168.218C1087.25 168.238 1087.24 168.262 1087.22 168.288C1087.21 168.315 1087.21 168.343 1087.21 168.372C1087.21 168.4 1087.21 168.428 1087.22 168.455C1087.24 168.481 1087.25 168.505 1087.27 168.525L1088.57 169.831C1088.59 169.851 1088.62 169.868 1088.64 169.879C1088.67 169.89 1088.7 169.896 1088.73 169.896C1088.76 169.896 1088.78 169.89 1088.81 169.879C1088.84 169.868 1088.86 169.851 1088.88 169.831C1088.92 169.79 1088.94 169.735 1088.94 169.677C1088.94 169.62 1088.92 169.565 1088.88 169.524Z" fill="#F7B4C4"/>
<path d="M1107.09 179.364C1107.9 179.364 1108.55 178.708 1108.55 177.898C1108.55 177.088 1107.9 176.431 1107.09 176.431C1106.28 176.431 1105.63 177.088 1105.63 177.898C1105.63 178.708 1106.28 179.364 1107.09 179.364Z" fill="#005DDE"/>
<path d="M1207 273.136H980.93V273.884H1207V273.136Z" fill="#3F3D56"/>
<path d="M1111.52 179.136C1112.28 178.245 1113.36 177.693 1114.53 177.601C1115.69 177.51 1116.85 177.887 1117.74 178.65C1117.94 178.82 1118.12 179.007 1118.29 179.207L1133.01 173.729L1131.16 181.699L1117.47 185.684C1116.59 186.331 1115.5 186.63 1114.41 186.522C1113.32 186.414 1112.31 185.907 1111.57 185.099C1110.84 184.291 1110.42 183.237 1110.41 182.14C1110.39 181.044 1110.78 179.981 1111.5 179.155L1111.52 179.136Z" fill="#9F616A"/>
<path d="M1134.5 191.902L1125.04 173.729L1145.73 169.988L1145.46 122.724V121.976C1154.6 125.126 1160.01 134.323 1158.14 143.827L1155.9 175.694L1134.5 191.902Z" fill="#F7B4C4"/>
<path d="M1131.07 162.127V168.113H1153.29V162.523L1131.07 162.127Z" fill="#CCCCCC"/>
<path d="M1157.55 180.101L1157.18 164.761H1122.48L1121.36 205.918L1120.62 205.899L1121.74 163.994H1157.89V164.368L1158.27 180.083L1157.55 180.101Z" fill="#CCCCCC"/>
</g>
</svg>
