<svg width="1360" height="550" viewBox="0 0 1360 550" fill="none" xmlns="http://www.w3.org/2000/svg">
<g filter="url(#filter0_d_217_1728)">
<rect width="1360" height="542" fill="#005DDE"/>
</g>
<g opacity="0.3">
<g clip-path="url(#clip0_217_1728)">
<path opacity="0.1" d="M545.935 522C578.04 522 604.065 517.707 604.065 512.411C604.065 507.116 578.04 502.823 545.935 502.823C513.831 502.823 487.805 507.116 487.805 512.411C487.805 517.707 513.831 522 545.935 522Z" fill="#F7B4C4"/>
<path opacity="0.1" d="M862.357 522C902.405 522 934.87 517.707 934.87 512.411C934.87 507.116 902.405 502.823 862.357 502.823C822.309 502.823 789.844 507.116 789.844 512.411C789.844 517.707 822.309 522 862.357 522Z" fill="#F7B4C4"/>
<path opacity="0.1" d="M334.467 257.117H395.517V339.308H338.936C338.786 340.152 338.641 341.002 338.485 341.851H395.517V408.136C395.415 408.136 395.324 408.071 395.228 408.035C393.616 407.406 392.016 406.74 390.416 406.027L389.393 405.57C387.789 404.821 386.185 404.029 384.581 403.193C384.021 402.902 383.462 402.599 382.909 402.29C374.004 397.362 365.914 391.119 358.919 383.776C358.715 383.579 358.522 383.371 358.318 383.181C357.343 382.136 356.387 381.078 355.46 379.997L354.414 378.802C353.319 377.477 352.26 376.117 351.232 374.738C351.081 374.536 350.937 374.334 350.78 374.144C346.597 368.415 343.123 362.211 340.434 355.666C340.35 355.469 340.278 355.256 340.199 355.071C339.373 352.976 338.641 350.857 338.004 348.714C337.727 347.817 337.462 346.931 337.234 345.998C337.15 345.725 337.077 345.458 337.011 345.19C333.594 332.018 333.191 318.334 333.191 304.746V299.992C333.191 294.496 333.258 288.964 333.354 283.439C333.354 282.007 333.414 280.581 333.444 279.143C333.528 275.495 333.649 271.847 333.805 268.198C333.841 267.182 333.889 266.172 333.943 265.162C333.943 264.579 333.973 263.996 334.034 263.415C334.202 261.306 334.322 259.209 334.467 257.117Z" fill="#F7B4C4"/>
<path opacity="0.1" d="M395.517 164.828H361.957C367.413 156.383 373.374 148.268 379.807 140.526C384.792 134.468 390.055 128.566 395.517 122.878V164.828Z" fill="#F7B4C4"/>
<path opacity="0.1" d="M395.517 167.225V253.522H334.391C334.391 253.272 334.433 253.017 334.451 252.768C334.505 252.086 334.56 251.404 334.62 250.727C334.687 249.932 334.759 249.131 334.838 248.354C334.916 247.577 335.001 246.628 335.091 245.768C335.182 244.907 335.267 244.035 335.369 243.175C335.472 242.315 335.563 241.454 335.672 240.6C335.78 239.746 335.877 238.88 335.992 238.025C336.082 237.313 336.179 236.607 336.276 235.896C336.415 234.893 336.56 233.884 336.717 232.888C336.727 232.738 336.749 232.589 336.783 232.443C337.887 225.147 339.389 217.914 341.285 210.777C343.268 203.289 345.802 195.953 348.867 188.826C352.124 181.369 355.936 174.159 360.275 167.255L395.517 167.225Z" fill="#F7B4C4"/>
<path opacity="0.1" d="M409.898 256.717V339.407H539.342V256.717H409.898ZM409.898 341.96V412.97C410.639 413.126 411.373 413.275 412.102 413.401C413.093 413.592 414.078 413.765 415.088 413.915C415.279 413.945 415.476 413.974 415.685 413.992C416.079 414.058 416.485 414.112 416.879 414.166C417.876 414.303 418.868 414.417 419.865 414.506C420.337 414.554 420.814 414.596 421.292 414.632L422.445 414.722C423.072 414.769 423.693 414.805 424.308 414.823C424.69 414.823 425.072 414.859 425.466 414.871H429.724C430.237 414.871 430.751 414.871 431.258 414.823H431.294C431.651 414.831 432.008 414.815 432.363 414.775H432.662C432.957 414.783 433.252 414.769 433.545 414.734H433.754L435.755 414.578C436.412 414.518 437.075 414.441 437.743 414.369L439.105 414.208C444.644 413.431 450.122 412.265 455.497 410.717C467.571 407.346 479.382 402.629 491.451 399.175C507.054 394.721 524.294 392.534 539.372 397.979V341.96H409.898ZM539.342 164.66V54.5694C525.17 54.4173 511.036 56.0785 497.285 59.5126C464.502 67.7554 435.098 85.6515 409.898 108.467V164.654H416.395V167.206H409.898V254.164H539.342V167.212H443.07V164.66H539.342ZM705.606 127.493C697.496 127.206 689.435 124.636 682.144 120.667C668.2 113.076 657.064 101.354 644.619 91.4615C618.763 70.8576 586.696 58.4248 553.799 55.3405V164.66H738.592L739.052 164.176L705.606 127.493ZM722.469 124.504L740.318 144.11V119.364C734.346 120.105 729.103 121.868 722.493 124.48L722.469 124.504ZM740.288 430.603V341.96H702.256C702.154 341.583 702.053 341.2 701.933 340.818C702.047 341.2 702.142 341.583 702.25 341.96H553.823V406.066C555.232 407.112 556.623 408.212 558.003 409.33C559.49 410.526 560.959 411.787 562.434 413.024L563.921 414.255C564.631 414.853 565.348 415.451 566.07 416.013C567.503 417.176 568.951 418.324 570.412 419.456C571.134 420.053 571.875 420.591 572.609 421.153C584.271 430.076 596.571 438.129 609.411 445.248C612.289 446.842 615.194 448.398 618.124 449.916C620.076 450.914 622.041 451.907 624.011 452.869C626.973 454.315 629.959 455.71 632.969 457.053C660.716 469.521 690.057 478.076 720.152 482.475C726.832 483.463 733.542 484.24 740.282 484.806V430.597L740.288 430.603ZM553.823 167.212V254.164H740.312V167.212H553.823ZM553.823 256.717V339.407H740.312V256.717H553.823ZM754.787 119.238V146.841L777.568 121.82C770.004 120.601 762.41 119.73 754.787 119.208V119.238ZM754.787 256.747V339.407H936.17V256.717L754.787 256.747ZM935.507 437.166L936.146 341.96H754.787V485.756C766.47 486.247 778.171 486.108 789.839 485.338H790.042C795.616 484.987 801.163 484.477 806.685 483.808H806.81C836.268 480.377 865.072 472.684 892.322 460.968L935.507 437.166ZM971.145 270.333C970.464 268.725 969.754 267.129 969.031 265.551C967.682 262.563 966.254 259.658 964.785 256.753H950.633V339.407H986.408C986.408 316 980.472 292.091 971.157 270.303L971.145 270.333ZM950.633 341.989V423.879C960.713 414.208 969.228 403.143 975.361 390.495C982.736 375.265 986.109 358.774 986.384 341.977L950.633 341.989ZM950.633 232.652V254.17H963.46C959.579 246.763 955.303 239.57 950.651 232.622L950.633 232.652ZM827.621 135.461C826.677 135.102 825.734 134.737 824.784 134.385C814.764 130.684 804.525 127.606 794.127 125.168L759.265 163.464L758.596 164.176L759.044 164.666H883.137C865.857 152.759 847.228 142.946 827.639 135.431L827.621 135.461ZM886.774 167.242H757.331L754.787 169.573V254.164H936.194V213.19C921.803 195.771 905.194 180.313 886.792 167.212L886.774 167.242Z" fill="#F7B4C4"/>
<path opacity="0.1" d="M395.517 210.373V253.522H334.391C334.391 253.27 334.433 253.013 334.451 252.761C334.505 252.073 334.56 251.385 334.62 250.703C334.687 249.9 334.759 249.092 334.838 248.308C334.916 247.524 335.001 246.567 335.091 245.699C335.182 244.831 335.267 243.951 335.369 243.083C335.472 242.215 335.563 241.347 335.672 240.486C335.78 239.624 335.877 238.75 335.992 237.888C336.082 237.17 336.179 236.457 336.276 235.739C336.415 234.728 336.56 233.71 336.717 232.705C336.727 232.553 336.749 232.403 336.783 232.256C337.887 224.895 339.389 217.598 341.285 210.397L395.517 210.373Z" fill="#F7B4C4"/>
<path opacity="0.1" d="M334.467 257.117H395.517V339.308H338.936C338.786 340.152 338.641 341.002 338.485 341.851H395.517V408.136C395.415 408.136 395.324 408.071 395.228 408.035C393.616 407.406 392.016 406.74 390.416 406.027L389.393 405.57C387.789 404.821 386.185 404.029 384.581 403.193C384.021 402.902 383.462 402.599 382.909 402.29C374.004 397.362 365.914 391.119 358.919 383.776C358.715 383.579 358.522 383.371 358.318 383.181C357.343 382.136 356.387 381.078 355.46 379.997L354.414 378.802C353.319 377.477 352.26 376.117 351.232 374.738C351.081 374.536 350.937 374.334 350.78 374.144C346.597 368.415 343.123 362.211 340.434 355.666C340.35 355.469 340.278 355.256 340.199 355.071C339.373 352.976 338.641 350.857 338.004 348.714C337.727 347.817 337.462 346.931 337.234 345.998C337.15 345.725 337.077 345.458 337.011 345.19C333.594 332.018 333.191 318.334 333.191 304.746V299.992C333.191 294.496 333.258 288.964 333.354 283.439C333.354 282.007 333.414 280.581 333.444 279.143C333.528 275.495 333.649 271.847 333.805 268.198C333.841 267.182 333.889 266.172 333.943 265.162C333.943 264.579 333.973 263.996 334.034 263.415C334.202 261.306 334.322 259.209 334.467 257.117Z" fill="#F7B4C4"/>
<path opacity="0.1" d="M455.444 179.203V253.521H409.898V179.203H416.391V154.041H443.043V179.203H455.444Z" fill="#F7B4C4"/>
<path opacity="0.1" d="M455.444 257.117H409.898V338.62H455.444V257.117Z" fill="#F7B4C4"/>
<path opacity="0.1" d="M409.898 342.215H455.444V410.036C450.071 411.562 444.597 412.711 439.06 413.475L437.7 413.64C437.031 413.716 436.369 413.781 435.712 413.846C435.056 413.911 434.375 413.958 433.713 413.999H433.504C433.217 413.999 432.907 414.035 432.626 414.041H432.322C431.964 414.041 431.606 414.076 431.248 414.088C430.74 414.117 430.233 414.123 429.714 414.129H425.488L424.336 414.088C423.739 414.088 423.095 414.023 422.474 413.982L421.328 413.899L419.902 413.769C418.899 413.681 417.902 413.569 416.917 413.433L415.724 413.268L415.127 413.186C414.13 413.032 413.145 412.867 412.143 412.678C411.408 412.555 410.68 412.401 409.94 412.254L409.898 342.215Z" fill="#F7B4C4"/>
<path opacity="0.1" d="M740.706 170.821H702.352V253.522H740.706V170.821Z" fill="#F7B4C4"/>
<path opacity="0.1" d="M740.703 257.117V338.62H553.727V303.465H653.318V324.203H703.033V257.117H740.703Z" fill="#F7B4C4"/>
<path opacity="0.1" d="M740.703 430.681H740.106V484.844C733.383 484.275 726.68 483.502 719.996 482.523C689.908 478.116 660.576 469.555 632.84 457.085C624.832 453.48 616.987 449.545 609.305 445.28C596.465 438.17 584.164 430.129 572.499 421.221C569.567 418.977 566.677 416.681 563.829 414.333C561.854 412.704 559.891 411.033 557.904 409.409C556.525 408.293 555.135 407.195 553.727 406.144V342.157H702.065C701.964 341.775 701.862 341.393 701.755 341.017C701.868 341.393 701.976 341.775 702.077 342.157H740.106V430.645C740.309 430.651 740.506 430.669 740.703 430.681Z" fill="#F7B4C4"/>
<path opacity="0.1" d="M838.986 164.828H813.816V157.297H825.1V134.864C826.078 135.207 827.052 135.559 828.022 135.922V157.297H838.986V164.828Z" fill="#F7B4C4"/>
<path opacity="0.1" d="M897.713 253.492H777.418L777.46 253.522L777.406 253.492H755.09V170.848H761.413V231.934H790.309V195.757H814.185V167.225H838.689V195.781H862.559V231.958H897.719L897.713 253.492Z" fill="#F7B4C4"/>
<path opacity="0.1" d="M755.09 257.117V339.663H897.279V257.117H755.09ZM935.876 436.828L936.073 371.491H897.279V342.253H755.09V485.757C766.747 486.247 778.423 486.108 790.065 485.339H790.268C795.829 484.989 801.364 484.48 806.873 483.811H806.999C836.391 480.387 865.132 472.707 892.321 461.012" fill="#F7B4C4"/>
<path opacity="0.1" d="M954.087 342.215H986.407C986.122 358.925 982.848 375.337 975.684 390.495C969.721 403.088 961.437 414.099 951.648 423.718V371.37H954.087V342.215Z" fill="#F7B4C4"/>
<path opacity="0.1" d="M986.408 338.619H954.047V270.301H971.558C980.639 291.841 986.408 315.478 986.408 338.619Z" fill="#F7B4C4"/>
<path opacity="0.1" d="M740.704 193.594H720.328V219.962H740.704V193.594Z" fill="#F7B4C4"/>
<path opacity="0.1" d="M740.704 247.529H720.328V253.522H740.704V247.529Z" fill="#F7B4C4"/>
<path opacity="0.1" d="M740.704 257.117H720.328V273.897H740.704V257.117Z" fill="#F7B4C4"/>
<path opacity="0.1" d="M740.704 301.464H720.328V327.833H740.704V301.464Z" fill="#F7B4C4"/>
<path opacity="0.1" d="M740.704 356.598H720.328V381.768H740.704V356.598Z" fill="#F7B4C4"/>
<path opacity="0.1" d="M740.116 430.747C740.313 430.741 740.509 430.753 740.704 430.783H740.116V436.902H720.328V410.533H740.116V430.747Z" fill="#F7B4C4"/>
<path opacity="0.1" d="M740.704 464.469V484.844C733.892 484.269 727.1 483.486 720.328 482.496V464.469H740.704Z" fill="#F7B4C4"/>
<path opacity="0.1" d="M640.023 337.421H553.727V338.62H640.023V337.421Z" fill="#F7B4C4"/>
<path opacity="0.1" d="M640.023 342.215H553.727V349.407H640.023V342.215Z" fill="#F7B4C4"/>
<path opacity="0.1" d="M640.023 373.378H553.727V385.364H640.023V373.378Z" fill="#F7B4C4"/>
<path opacity="0.1" d="M640.025 409.335V421.32H572.045C569.089 419.05 566.174 416.719 563.298 414.328C561.307 412.673 559.334 410.977 557.324 409.335H640.025Z" fill="#F7B4C4"/>
<path opacity="0.1" d="M640.026 445.31V457.278H632.806C624.665 453.616 616.684 449.62 608.863 445.292L640.026 445.31Z" fill="#F7B4C4"/>
<path opacity="0.1" d="M806.624 264.309H789.844V281.089H806.624V264.309Z" fill="#F7B4C4"/>
<path opacity="0.1" d="M438.663 185.203H421.883V201.983H438.663V185.203Z" fill="#F7B4C4"/>
<path opacity="0.1" d="M438.663 224.756H421.883V241.536H438.663V224.756Z" fill="#F7B4C4"/>
<path opacity="0.1" d="M438.663 264.309H421.883V281.089H438.663V264.309Z" fill="#F7B4C4"/>
<path opacity="0.1" d="M438.663 303.861H421.883V320.641H438.663V303.861Z" fill="#F7B4C4"/>
<path opacity="0.1" d="M438.663 343.414H421.883V360.194H438.663V343.414Z" fill="#F7B4C4"/>
<path opacity="0.1" d="M438.663 382.967H421.883V399.746H438.663V382.967Z" fill="#F7B4C4"/>
<path opacity="0.1" d="M872.545 264.309H854.566V281.089H872.545V264.309Z" fill="#F7B4C4"/>
<path opacity="0.1" d="M806.624 306.259H789.844V323.038H806.624V306.259Z" fill="#F7B4C4"/>
<path opacity="0.1" d="M872.545 306.259H854.566V323.038H872.545V306.259Z" fill="#F7B4C4"/>
<path opacity="0.1" d="M806.624 348.208H789.844V364.988H806.624V348.208Z" fill="#F7B4C4"/>
<path opacity="0.1" d="M872.545 348.208H854.566V364.988H872.545V348.208Z" fill="#F7B4C4"/>
<path opacity="0.1" d="M806.624 390.158H789.844V406.938H806.624V390.158Z" fill="#F7B4C4"/>
<path opacity="0.1" d="M872.545 390.158H854.566V406.938H872.545V390.158Z" fill="#F7B4C4"/>
<path opacity="0.1" d="M806.624 432.108H789.844V448.888H806.624V432.108Z" fill="#F7B4C4"/>
<path opacity="0.1" d="M872.545 432.108H854.566V448.888H872.545V432.108Z" fill="#F7B4C4"/>
<path opacity="0.1" d="M789.844 484.845V474.058H806.624V483.31L789.844 484.845Z" fill="#F7B4C4"/>
<path opacity="0.1" d="M336.785 233.146V242.735H395.515V233.146H336.785ZM342.638 242.133H337.847V233.735H342.674L342.638 242.133ZM348.485 242.133H343.658V233.735H348.485V242.133ZM354.32 242.133H349.493V233.735H354.32V242.133ZM360.167 242.133H355.34V233.735H360.167V242.133ZM366.008 242.133H361.181V233.735H366.008V242.133ZM371.855 242.133H367.028V233.735H371.855V242.133ZM377.702 242.133H372.875V233.735H377.702V242.133ZM383.543 242.133H378.716V233.735H383.543V242.133ZM389.384 242.133H384.557V233.735H389.384V242.133ZM395.225 242.133H390.398V233.735H395.225V242.133Z" fill="#F7B4C4"/>
<path opacity="0.1" d="M336.785 260.713V270.301H395.515V260.713H336.785ZM342.638 269.713H337.847V261.319H342.674L342.638 269.713ZM348.485 269.713H343.658V261.319H348.485V269.713ZM354.32 269.713H349.493V261.319H354.32V269.713ZM360.167 269.713H355.34V261.319H360.167V269.713ZM366.008 269.713H361.181V261.319H366.008V269.713ZM371.855 269.713H367.028V261.319H371.855V269.713ZM377.702 269.713H372.875V261.319H377.702V269.713ZM383.543 269.713H378.716V261.319H383.543V269.713ZM389.384 269.713H384.557V261.319H389.384V269.713ZM395.225 269.713H390.398V261.319H395.225V269.713Z" fill="#F7B4C4"/>
<path opacity="0.1" d="M336.785 289.478V299.067H395.515V289.478H336.785ZM342.638 298.443H337.847V290.078H342.674L342.638 298.443ZM348.485 298.443H343.658V290.078H348.485V298.443ZM354.32 298.443H349.493V290.078H354.32V298.443ZM360.167 298.443H355.34V290.078H360.167V298.443ZM366.008 298.443H361.181V290.078H366.008V298.443ZM371.855 298.443H367.028V290.078H371.855V298.443ZM377.702 298.443H372.875V290.078H377.702V298.443ZM383.543 298.443H378.716V290.078H383.543V298.443ZM389.384 298.443H384.557V290.078H389.384V298.443ZM395.225 298.443H390.398V290.078H395.225V298.443Z" fill="#F7B4C4"/>
<path opacity="0.1" d="M336.785 317.046V327.833H395.515V317.046H336.785ZM342.638 327.162H337.847V317.716H342.674L342.638 327.162ZM348.485 327.162H343.658V317.716H348.485V327.162ZM354.32 327.162H349.493V317.716H354.32V327.162ZM360.167 327.162H355.34V317.716H360.167V327.162ZM366.008 327.162H361.181V317.716H366.008V327.162ZM371.855 327.162H367.028V317.716H371.855V327.162ZM377.702 327.162H372.875V317.716H377.702V327.162ZM383.543 327.162H378.716V317.716H383.543V327.162ZM389.384 327.162H384.557V317.716H389.384V327.162ZM395.225 327.162H390.398V317.716H395.225V327.162Z" fill="#F7B4C4"/>
<path opacity="0.1" d="M336.785 345.811C337.022 346.716 337.288 347.62 337.567 348.513V346.414H342.415V354.808H339.821C339.9 355.004 339.979 355.216 340.058 355.4H395.515V345.811H336.785ZM348.3 354.82H343.451V346.414H348.3V354.82ZM354.16 354.82H349.312V346.414H354.16V354.82ZM360.032 354.82H355.184V346.414H360.032V354.82ZM365.898 354.82H361.05V346.414H365.898V354.82ZM371.771 354.82H366.923V346.414H371.771V354.82ZM377.643 354.82H372.795V346.414H377.643V354.82ZM383.51 354.82H378.661V346.414H383.51V354.82ZM389.376 354.82H384.528V346.414H389.376V354.82ZM395.242 354.82H390.394V346.414H395.242V354.82Z" fill="#F7B4C4"/>
<path opacity="0.1" d="M349.973 374.577C350.126 374.766 350.273 374.978 350.432 375.167H353.672V379.22C354.021 379.622 354.364 380.024 354.72 380.402V375.144H359.62V383.574H357.647C357.843 383.769 358.033 383.976 358.26 384.165H395.518V374.577H349.973ZM365.536 383.574H360.636V375.179H365.536V383.574ZM371.471 383.574H366.571V375.179H371.471V383.574ZM377.407 383.574H372.507V375.179H377.407V383.574ZM383.336 383.574H378.436V375.179H383.336V383.574ZM389.264 383.574H384.365V375.179H389.264V383.574ZM395.193 383.574H390.293V375.179H395.193V383.574Z" fill="#F7B4C4"/>
<path opacity="0.1" d="M382.332 402.15C382.904 402.466 383.489 402.758 384.081 403.074V402.77H389.113V405.502L390.182 405.983V402.764H395.214V408.027C395.31 408.076 395.411 408.113 395.516 408.136V402.144L382.332 402.15Z" fill="#F7B4C4"/>
<path opacity="0.1" d="M702.03 341.073C702.144 341.456 702.24 341.838 702.348 342.215C702.264 341.838 702.15 341.456 702.03 341.073ZM415.891 164.828V167.381H442.624V164.828H415.891ZM702.03 341.073C702.144 341.456 702.24 341.838 702.348 342.215C702.264 341.838 702.15 341.456 702.03 341.073ZM702.03 341.073C702.144 341.456 702.24 341.838 702.348 342.215C702.264 341.838 702.15 341.456 702.03 341.073Z" fill="#F7B4C4"/>
<path d="M602.447 281.63C602.447 281.63 600.085 281.302 600.085 277.88C600.085 274.458 598.394 268.067 598.394 268.067C598.394 268.037 596.931 256.936 594.911 255.171C592.891 253.407 590.295 243.045 590.295 243.045C590.295 243.045 589.851 237.423 588.946 236.213C588.041 235.002 586.818 232.039 585.013 227.812C583.209 223.585 575.685 220.658 575.685 220.658C575.685 220.658 562.082 212.812 558.227 210.284C557.877 210.075 557.549 209.829 557.25 209.551C556.579 208.675 553.653 208.657 553.653 208.657C553.314 206.63 553.081 204.586 552.958 202.534C552.963 202.319 552.953 202.104 552.928 201.89C557.226 199.363 560.463 195.379 562.046 190.67C562.118 190.443 562.178 190.205 562.244 189.978C562.501 189.894 562.738 189.757 562.94 189.576C563.141 189.395 563.302 189.175 563.413 188.929C563.761 188.16 563.767 187.26 564.198 186.544C564.702 185.698 565.661 185.245 566.417 184.607C568.323 182.997 568.815 180.284 568.725 177.816C568.665 175.819 568.341 173.804 568.467 171.819L568.503 171.318C568.539 171.02 568.581 170.722 568.635 170.436C568.928 168.957 569.57 167.562 569.93 166.095C570.289 164.629 570.325 162.977 569.486 161.713C568.257 159.859 565.697 159.49 563.449 159.329C560.901 159.114 558.623 159.394 556.992 157.29C556.229 156.19 555.37 155.159 554.427 154.207C554.091 153.897 550.83 151.918 550.83 151.787C547.647 150.321 544.039 150.046 540.668 151.012C538.977 151.501 537.383 152.3 535.668 152.699C531.969 153.569 527.713 152.628 524.571 154.732C522.821 155.924 521.772 157.82 520.789 159.668C519.991 161.189 519.176 162.709 518.355 164.229C517.03 166.727 515.681 169.267 515.123 172.033C515.004 172.635 514.931 173.245 514.908 173.858V174.829C514.901 175.029 514.913 175.228 514.943 175.426C514.979 175.61 514.973 175.67 514.991 175.795C515.009 175.92 515.039 176.201 515.075 176.391C515.111 176.582 515.183 176.916 515.255 177.178C515.255 177.292 515.327 177.399 515.363 177.506C515.423 177.709 515.495 177.906 515.573 178.102C515.615 178.204 515.657 178.311 515.705 178.412C515.795 178.617 515.897 178.816 516.011 179.009C516.059 179.092 516.095 179.17 516.142 179.247C516.312 179.523 516.496 179.79 516.694 180.046C517.977 181.638 519.865 182.651 521.262 184.142V184.81C521.331 188.139 522.218 191.401 523.846 194.31C525.474 197.22 527.794 199.69 530.602 201.503C530.602 201.729 530.632 201.962 530.644 202.188C530.763 203.958 530.741 205.734 530.578 207.5C530.335 207.214 530.029 206.986 529.685 206.833C529.34 206.681 528.965 206.607 528.588 206.618C528.331 206.607 528.073 206.629 527.821 206.684L527.767 206.642V206.695C526.448 207.017 524.823 208.383 523.271 212.264C523.271 212.264 518.546 217.558 514.949 217.337C511.352 217.117 502.246 222.846 502.246 222.846C502.246 222.846 493.361 228.581 491.455 234.424C490.388 237.737 489.111 240.978 487.63 244.13L476.647 266.636L474.621 284.492C474.621 284.492 475.742 292.433 475.52 293.643C475.299 294.853 480.131 305.674 480.131 305.674C480.131 305.674 496.095 333.569 502.618 335L503.085 334.672C503.365 334.817 503.661 334.927 503.967 335L505.31 334.058C505.39 335.108 505.355 336.164 505.208 337.206C504.308 339.961 505.543 357.935 507.114 361.459C508.685 364.982 508.127 411.181 508.127 411.181L507.905 415.259C507.911 415.379 507.929 415.499 507.959 415.616L507.905 416.564L508.067 416.648C508.235 417.941 508.181 419.254 507.905 420.529C507.342 422.317 507.114 427.373 507.114 427.373C507.114 427.373 502.624 455.918 504.752 461.654C506.88 467.389 508.691 473.673 508.691 473.673C508.691 473.673 510.939 480.827 508.799 482.019C506.658 483.212 500.573 485.292 501.826 488.273C502.965 491.028 507.288 498.408 507.929 499.487L507.875 500.084L506.994 509.581C507.138 510.835 507.48 512.058 508.007 513.206C508.972 515.274 510.849 517.421 514.416 517.188C515.015 517.146 515.711 517.075 516.382 516.985C522.911 516.115 530.95 513.218 530.95 513.218C530.533 512.954 530.15 512.64 529.811 512.282C529.49 511.973 529.235 511.602 529.063 511.192C528.891 510.782 528.805 510.341 528.81 509.897C528.906 508.168 525.651 499.929 524.841 497.902C524.715 497.609 524.649 497.443 524.649 497.443C524.649 497.443 532.071 489.728 530.836 482.89C530.836 482.89 522.623 478.12 525.327 475.503C528.031 472.886 532.863 465.368 532.863 465.368C532.863 465.368 533.084 437.258 532.863 433.061C532.631 430.147 532.77 427.217 533.276 424.338C533.366 423.903 533.474 423.48 533.588 423.063C537.327 423.618 541.102 423.903 544.883 423.915C546.261 423.915 547.664 423.915 549.079 423.832C549.079 424.229 549.097 424.658 549.133 425.119C549.445 432.083 550.026 444.293 550.5 448.83C551.171 455.334 554.882 472.862 554.882 472.862C554.882 472.862 547.802 477.381 556.117 488.518C556.117 488.518 556.117 492.554 555.566 493.138C554.978 495.048 554.504 496.991 554.145 498.957C553.797 501.055 553.653 503.178 554.217 504.281C555.566 506.916 563.659 506.701 563.659 506.701L563.857 506.666C565.385 506.509 566.929 506.655 568.399 507.096C569.87 507.537 571.238 508.264 572.424 509.235C575.499 511.691 587.171 510.612 593.49 509.831C595.966 509.521 597.621 509.235 597.621 509.235C597.699 508.956 597.728 508.665 597.705 508.377C597.639 506.832 596.422 503.446 588.172 500.423C588.172 500.423 580.415 495.237 580.523 490.718H579.462C579.819 490.695 580.177 490.695 580.535 490.718C580.535 490.718 577.495 479.688 578.736 478.794C579.977 477.9 576.26 465.678 576.26 465.678C576.26 465.678 574.132 445.169 574.018 443.732C574.023 442.499 574.211 441.274 574.576 440.096L574.018 428.852C574.018 428.852 573.91 425.113 574.018 423.897C574.001 422.842 573.915 421.788 573.76 420.743C573.707 420.326 573.653 419.891 573.593 419.462C576.5 418.728 578.389 418.049 578.389 418.049L578.053 378.909C580.523 374.14 580.978 363.677 580.966 356.254C580.966 351.485 580.751 347.955 580.751 347.955L584.126 342.476C584.126 342.476 584.905 335.918 583.67 334.482C583.125 333.832 583.37 333.158 583.82 332.604C584.053 332.419 584.3 332.252 584.557 332.103C584.557 332.103 584.521 332.049 584.48 331.972C584.714 331.774 584.965 331.597 585.229 331.441C585.229 331.441 584.03 329.593 585.103 328.812C586.11 329.492 587.009 330.004 587.693 330.422C587.645 330.857 587.597 331.107 587.597 331.107L587.885 330.511L588.946 331.107C588.946 331.107 594.233 320.632 594.119 319.088C594.006 317.544 597.716 311.04 597.716 311.04C597.716 311.04 598.166 307.623 600.192 306.193C602.219 304.762 601.763 294.394 601.763 294.394C601.763 294.394 602.327 288.993 603.676 286.787C605.024 284.581 602.447 281.63 602.447 281.63ZM501.275 277.057L501.377 279.555L500.346 277.904L501.275 277.057Z" fill="url(#paint0_linear_217_1728)"/>
<path d="M588.485 326.152L587.262 331.428C587.262 331.428 577.464 326.364 575.697 319.93C573.929 313.496 578.653 311.052 578.653 311.052L587.783 314.969L588.485 326.152Z" fill="white"/>
<path opacity="0.1" d="M588.485 326.152L587.262 331.428C587.262 331.428 577.464 326.364 575.697 319.93C573.929 313.496 578.653 311.052 578.653 311.052L587.783 314.969L588.485 326.152Z" fill="#2D3137"/>
<path d="M530.956 513.321C530.956 513.321 521.156 516.756 514.42 517.189C510.843 517.416 508.963 515.325 507.995 513.309C507.467 512.188 507.126 510.996 506.984 509.774L507.86 500.514L508.326 495.582L522.639 492.036L524.666 497.949L524.856 498.399C525.67 500.373 528.935 508.407 528.837 510.084C528.83 510.518 528.915 510.949 529.088 511.351C529.26 511.752 529.517 512.117 529.841 512.421C530.171 512.764 530.546 513.067 530.956 513.321Z" fill="white"/>
<path d="M595.669 508.792C595.691 509.085 595.664 509.381 595.587 509.664C595.587 509.664 575.604 513.149 571.516 509.664C570.364 508.646 569.021 507.891 567.573 507.447C566.124 507.004 564.604 506.882 563.108 507.089C563.108 507.089 555.376 507.309 554.086 504.648C553.548 503.531 553.688 501.365 554.021 499.229C554.362 497.227 554.814 495.249 555.376 493.303L555.686 493.047L557.525 491.503L579.061 490.837H579.225C579.12 495.439 586.536 500.718 586.536 500.718C594.413 503.769 595.575 507.217 595.669 508.792Z" fill="white"/>
<path opacity="0.1" d="M595.67 508.791C595.691 509.085 595.661 509.381 595.582 509.664C595.582 509.664 575.606 513.149 571.519 509.664C570.366 508.646 569.023 507.891 567.575 507.448C566.127 507.004 564.606 506.882 563.11 507.088C563.11 507.088 555.373 507.308 554.088 504.647C553.551 503.524 553.685 501.363 554.018 499.227C556.996 499.539 561.697 500.314 563.542 502.163C566.333 504.977 571.063 507.784 573.965 508.004C576.243 508.157 589.831 508.608 595.67 508.791Z" fill="#2D3137"/>
<path opacity="0.1" d="M530.952 513.313C530.952 513.313 521.231 516.755 514.547 517.188C510.999 517.417 509.134 515.321 508.18 513.295C510.653 514.097 514.086 514.94 515.89 514.168C518.029 513.254 525.612 512.663 529.865 512.411C530.188 512.753 530.553 513.056 530.952 513.313Z" fill="#2D3137"/>
<path d="M544.692 230.062C536.687 227.047 526.389 217.083 528.961 212.427C529.53 211.252 529.87 209.984 529.961 208.688C530.125 206.929 530.149 205.16 530.034 203.398C529.852 200.511 529.494 197.637 528.961 194.792C528.961 194.792 553.953 195.338 552.497 198.907C552.073 199.953 552.006 201.769 552.121 203.803C552.237 205.837 552.54 208.136 552.855 210.081C553.292 212.75 553.728 214.784 553.728 214.784C553.728 214.784 552.2 216.859 551.303 216.971C550.405 217.083 556.179 234.359 544.692 230.062Z" fill="#CF6F80"/>
<path opacity="0.1" d="M524.96 498.168L524.772 498.359C517.322 489.969 508.313 500.426 508.313 500.426L508.18 500.206L508.639 495.454L522.771 492.036L524.772 497.734L524.96 498.168Z" fill="#2D3137"/>
<path opacity="0.1" d="M578.897 491.559C578.897 491.559 573.613 491.433 570.795 494.238C567.977 497.044 554.357 494.847 554.944 494.238C555.117 493.936 555.222 493.591 555.249 493.233L557.099 491.559L578.75 490.837C578.833 491.281 578.897 491.559 578.897 491.559Z" fill="#2D3137"/>
<path d="M534.486 421.147C534.08 422.137 533.772 423.162 533.564 424.209C533.059 427.078 532.918 429.997 533.146 432.9C533.37 437.078 533.146 465.079 533.146 465.079C533.146 465.079 528.349 472.546 525.675 475.178C523 477.81 531.133 482.538 531.133 482.538C532.345 489.342 524.995 497.03 524.995 497.03C517.524 488.137 508.488 499.227 508.488 499.227C508.488 499.227 503.575 490.87 502.35 487.886C501.125 484.902 507.147 482.836 509.264 481.625C511.38 480.413 509.161 473.268 509.161 473.268C509.161 473.268 507.372 467.007 505.249 461.27C503.127 455.534 507.59 427.122 507.59 427.122C507.59 427.122 507.821 422.072 508.372 420.312C508.651 419.041 508.706 417.733 508.536 416.444C508.5 416.008 508.457 415.644 508.427 415.399C508.397 415.154 508.372 415.041 508.372 415.041L508.457 414.898L511.49 409.335C511.49 409.335 535.942 417.644 534.486 421.147Z" fill="#F7B4C4"/>
<path d="M578.898 490.786C578.898 490.786 573.675 490.672 570.89 493.184C568.105 495.696 554.643 493.735 555.223 493.184C555.804 492.632 555.757 488.55 555.757 488.55C547.86 477.412 554.597 472.893 554.597 472.893C554.597 472.893 551.069 455.359 550.431 448.855C549.984 444.311 549.433 432.07 549.137 425.129C549.009 422.132 548.934 420.069 548.934 420.069L555.386 418.727L556.216 418.553L571.778 415.328C571.778 415.328 572.207 418.325 572.498 420.777C572.642 421.824 572.724 422.879 572.741 423.936C572.637 425.135 572.741 428.887 572.741 428.887L573.269 440.139C572.926 441.319 572.748 442.545 572.741 443.778C572.846 445.21 574.871 465.723 574.871 465.723C574.871 465.723 578.393 477.964 577.192 478.845C575.991 479.726 578.898 490.786 578.898 490.786Z" fill="#F7B4C4"/>
<path opacity="0.1" d="M552.472 198.944C552.062 199.997 551.998 201.825 552.109 203.872C548.878 205.841 545.163 206.847 541.392 206.774C537.621 206.7 533.947 205.551 530.793 203.458C530.618 200.551 530.272 197.657 529.758 194.792C529.758 194.792 553.875 195.342 552.472 198.944Z" fill="#2D3137"/>
<path d="M562.118 185.549C562.123 187.659 561.786 189.756 561.118 191.761C559.626 196.254 556.567 200.084 552.482 202.574C548.396 205.063 543.547 206.053 538.791 205.367C534.036 204.681 529.68 202.364 526.494 198.825C523.307 195.286 521.496 190.754 521.379 186.029V185.549C521.287 182.89 521.733 180.24 522.693 177.754C523.653 175.267 525.107 172.993 526.97 171.064C528.833 169.136 531.068 167.591 533.545 166.521C536.021 165.451 538.69 164.876 541.394 164.831C544.099 164.785 546.786 165.27 549.298 166.256C551.81 167.242 554.098 168.711 556.027 170.575C557.956 172.44 559.488 174.664 560.534 177.117C561.58 179.57 562.118 182.204 562.118 184.864C562.118 185.094 562.118 185.322 562.118 185.549Z" fill="#CF6F80"/>
<path opacity="0.1" d="M544.692 230.078C536.687 227.129 526.389 217.384 528.961 212.831C529.53 211.681 529.87 210.442 529.961 209.175L540.926 217.712L547.7 222.966L552.855 210.526C553.292 213.136 553.728 215.125 553.728 215.125C553.728 215.125 552.2 217.154 551.303 217.263C550.405 217.373 556.179 234.28 544.692 230.078Z" fill="#2D3137"/>
<path d="M572.905 269.639L563.84 420.553L552.009 421.321L521.367 333.815L526.393 229.925L527.451 207.976L541.08 219.055L547.807 224.514L553.067 211.256L562.842 219.698L572.905 269.639Z" fill="#F7B4C4"/>
<path opacity="0.1" d="M534.485 421.944C534.077 422.904 533.766 423.899 533.557 424.916C524.806 423.632 516.308 421.111 508.345 417.435L508.18 417.354L508.235 416.421V415.934L511.288 410.533C511.288 410.533 535.951 418.542 534.485 421.944Z" fill="#2D3137"/>
<path opacity="0.1" d="M554.926 425.271C553.003 425.686 551.064 425.968 549.117 426.115C549.002 422.764 548.934 420.458 548.934 420.458L554.758 418.924L554.926 425.271Z" fill="#2D3137"/>
<path opacity="0.1" d="M572.905 420.719C568.653 421.816 562.087 423.05 556.209 422.279L556.125 418.519L572.163 415.328C572.163 415.328 572.594 418.234 572.905 420.719Z" fill="#2D3137"/>
<path opacity="0.1" d="M556.125 424.03C531.49 428.215 508.928 416.216 508.928 416.216L509.145 412.15C509.145 412.15 509.703 366.06 508.153 362.526C506.603 358.993 505.401 341.08 506.273 338.324C507.144 335.568 503.07 294.332 503.07 294.332L502.409 277.591L478.219 267.84L489.034 245.407C490.494 242.262 491.751 239.027 492.795 235.722C494.676 229.898 503.407 224.176 503.407 224.176C503.407 224.176 512.359 218.461 515.898 218.676C519.437 218.891 524.076 213.618 524.076 213.618C527.501 204.931 530.601 208.865 530.601 208.865C530.581 209.297 530.525 209.727 530.433 210.15C529.231 219.686 549.865 249.82 550.159 250.352L552.124 297.979L554.113 358.251L556.125 424.03Z" fill="#2D3137"/>
<path d="M554.927 424.03C530.68 428.215 508.468 416.217 508.468 416.217L508.687 412.152C508.687 412.152 509.237 366.069 507.705 362.536C506.173 359.004 504.991 341.088 505.86 338.338C506.729 335.588 502.696 294.353 502.696 294.353L502.04 277.615L478.219 267.83L488.864 245.401C490.301 242.256 491.537 239.021 492.566 235.717C494.411 229.895 503.009 224.174 503.009 224.174C503.009 224.174 511.821 218.459 515.298 218.674C518.776 218.889 523.347 213.617 523.347 213.617C526.724 204.931 530.444 208.865 530.444 208.865C530.444 209.277 530.089 209.462 530.278 210.15C532.88 219.397 548.753 249.813 549.043 250.345L551 297.964L552.963 358.226L554.927 424.03Z" fill="white"/>
<path opacity="0.1" d="M548.933 251.124C546.274 250.034 532.189 234.257 532.189 234.257V230.659C531.677 229.474 528.632 230.197 526.16 231.027L527.221 209.175L528.427 210.158C531.068 219.292 548.625 250.597 548.933 251.124Z" fill="#2D3137"/>
<path d="M548.933 249.926C546.269 248.836 532.188 233.041 532.188 233.041V229.445C531.676 228.261 528.632 228.984 526.16 229.813L527.227 207.976L528.433 208.959C531.079 218.116 548.638 249.405 548.933 249.926Z" fill="white"/>
<path opacity="0.1" d="M509.51 329.582C509.835 329.582 526.364 327.833 526.364 327.833C526.364 327.833 536.372 347.645 535.716 352.465C535.06 357.286 533.871 361.553 529.846 360.797C525.82 360.041 508.18 361.392 508.18 361.392L509.51 329.582Z" fill="#2D3137"/>
<path d="M508.315 328.384C508.64 328.384 525.169 326.634 525.169 326.634C525.169 326.634 535.171 346.452 534.521 351.267C533.871 356.081 532.671 360.355 528.651 359.599C524.631 358.843 506.984 360.194 506.984 360.194L508.315 328.384Z" fill="white"/>
<path d="M521.047 318.244C521.047 318.244 536.604 326.73 536.937 329.321C537.271 331.911 529.02 328.188 527.237 327.739C526.064 327.452 524.87 327.263 523.666 327.173L511.777 327.499L521.047 318.244Z" fill="#CF6F80"/>
<path opacity="0.1" d="M544.735 252.323C545.728 252.323 546.533 251.518 546.533 250.525C546.533 249.532 545.728 248.727 544.735 248.727C543.742 248.727 542.938 249.532 542.938 250.525C542.938 251.518 543.742 252.323 544.735 252.323Z" fill="#2D3137"/>
<path d="M544.735 251.124C545.728 251.124 546.533 250.588 546.533 249.926C546.533 249.264 545.728 248.727 544.735 248.727C543.742 248.727 542.938 249.264 542.938 249.926C542.938 250.588 543.742 251.124 544.735 251.124Z" fill="#3F3D56"/>
<path opacity="0.1" d="M547.134 321.84C548.127 321.84 548.932 321.303 548.932 320.641C548.932 319.979 548.127 319.443 547.134 319.443C546.141 319.443 545.336 319.979 545.336 320.641C545.336 321.303 546.141 321.84 547.134 321.84Z" fill="#2D3137"/>
<path d="M547.134 321.84C548.127 321.84 548.932 321.035 548.932 320.042C548.932 319.049 548.127 318.244 547.134 318.244C546.141 318.244 545.336 319.049 545.336 320.042C545.336 321.035 546.141 321.84 547.134 321.84Z" fill="#3F3D56"/>
<path opacity="0.1" d="M545.935 287.081C546.928 287.081 547.732 286.276 547.732 285.283C547.732 284.291 546.928 283.486 545.935 283.486C544.942 283.486 544.137 284.291 544.137 285.283C544.137 286.276 544.942 287.081 545.935 287.081Z" fill="#2D3137"/>
<path d="M545.935 287.081C546.928 287.081 547.732 286.276 547.732 285.283C547.732 284.291 546.928 283.486 545.935 283.486C544.942 283.486 544.137 284.291 544.137 285.283C544.137 286.276 544.942 287.081 545.935 287.081Z" fill="#3F3D56"/>
<path d="M582.681 327.082C582.681 327.082 583.782 328.725 582.681 329.492C581.58 330.26 582.789 332.116 582.789 332.116C582.789 332.116 580.042 333.717 581.251 335.157C582.46 336.597 581.694 343.1 581.694 343.1L578.39 348.539C578.39 348.539 578.588 352.044 578.6 356.78C578.6 364.17 578.163 374.559 575.745 379.296L576.08 418.157C576.08 418.157 564.512 422.358 554.829 421.078L553.393 358.72C553.393 358.72 555.488 323.357 556.26 316.574C556.709 313.052 556.893 309.502 556.81 305.953C556.81 305.953 556.481 295.338 555.374 290.411C555.374 290.411 554.177 269.067 554.057 263.159C554.003 260.332 554.153 252.085 554.321 244.243C554.506 235.669 554.716 227.582 554.716 227.582L552.531 210.398C552.531 210.398 554.716 210.178 555.374 211.053C555.669 211.326 555.99 211.571 556.331 211.784C560.102 214.319 573.423 222.114 573.423 222.114C573.423 222.114 580.796 225.03 582.562 229.207C584.327 233.384 585.554 236.347 586.41 237.537C587.265 238.727 587.732 244.32 587.732 244.32C587.732 244.32 590.27 254.614 592.25 256.358C594.231 258.101 595.68 269.192 595.68 269.192L578.175 282.878C578.175 282.878 576.637 305.644 576.308 306.524C575.979 307.405 582.681 327.082 582.681 327.082Z" fill="white"/>
<path d="M583.722 327.157C583.722 327.157 584.829 328.798 583.722 329.564C582.614 330.331 583.825 332.186 583.825 332.186C583.825 332.186 581.065 333.803 582.275 335.241C583.486 336.68 582.723 343.177 582.723 343.177L579.395 348.61C579.395 348.61 579.594 352.112 579.613 356.843C579.613 364.226 579.171 374.605 576.726 379.337L577.059 418.16C577.059 418.16 565.343 422.357 555.563 421.079L554.117 358.781C554.117 358.781 556.235 323.454 557.016 316.677C557.474 313.159 557.658 309.612 557.566 306.066C557.566 306.066 557.233 295.461 556.12 290.539C556.12 290.539 554.91 269.217 554.782 263.314C554.728 260.491 554.885 252.252 555.049 244.417C555.236 235.851 555.448 227.773 555.448 227.773L552.531 210.373C552.531 210.373 555.448 210.373 556.12 211.259C556.414 211.537 556.739 211.783 557.088 211.99C560.901 214.522 574.378 222.31 574.378 222.31C574.378 222.31 581.815 225.222 583.631 229.395C585.446 233.568 586.657 236.529 587.528 237.718C588.4 238.906 588.86 244.494 588.86 244.494C588.86 244.494 591.426 254.778 593.429 256.52C595.432 258.261 596.878 269.318 596.878 269.318L579.177 282.99C579.177 282.99 577.622 305.733 577.283 306.613C576.944 307.493 583.722 327.157 583.722 327.157Z" fill="white"/>
<path opacity="0.1" d="M563.278 232.416L564.913 236.928L556.303 245.132C556.495 236.693 556.712 228.724 556.712 228.724L553.727 211.572C553.727 211.572 556.712 211.572 557.4 212.445C557.702 212.716 558.035 212.955 558.391 213.16L565.712 233.142L563.278 232.416Z" fill="#2D3137"/>
<path d="M562.048 230.763L563.684 235.436L555.105 243.933C555.296 235.187 555.512 226.939 555.512 226.939L552.531 209.175C552.531 209.175 555.512 209.175 556.191 210.079C556.494 210.36 556.825 210.61 557.179 210.825L564.517 231.515L562.048 230.763Z" fill="white"/>
<path opacity="0.1" d="M562.118 185.289C562.123 187.372 561.786 189.443 561.118 191.423C561.006 191.44 560.891 191.435 560.78 191.408C560.67 191.381 560.566 191.333 560.475 191.267C560.32 186.064 557.682 181.178 554.437 177.021C553.525 175.767 552.42 174.656 551.162 173.726C549.89 172.796 548.306 172.361 546.721 172.506C544.934 172.743 543.356 173.922 541.552 174.072C539.171 174.263 537.039 172.662 534.675 172.581C533.714 172.59 532.766 172.798 531.895 173.191C531.023 173.584 530.247 174.152 529.62 174.859C528.376 176.284 527.453 177.946 526.911 179.738C525.975 182.455 525.465 185.293 525.398 188.157C525.398 189.776 525.208 191.805 523.66 192.395C523.777 191.204 523.638 190.003 523.251 188.867C522.865 187.731 522.24 186.686 521.415 185.798L521.379 185.763V185.289C521.287 182.664 521.733 180.047 522.693 177.591C523.653 175.136 525.107 172.89 526.97 170.986C528.833 169.082 531.068 167.556 533.545 166.5C536.021 165.443 538.69 164.875 541.394 164.831C544.099 164.786 546.786 165.264 549.298 166.238C551.81 167.212 554.098 168.662 556.027 170.503C557.956 172.345 559.488 174.541 560.534 176.963C561.58 179.385 562.118 181.986 562.118 184.612C562.118 184.84 562.118 185.065 562.118 185.289Z" fill="#2D3137"/>
<path d="M550.447 152.991C547.349 151.521 543.825 151.243 540.538 152.209C538.887 152.703 537.33 153.503 535.655 153.906C532.078 154.778 527.904 153.834 524.834 155.946C523.129 157.149 522.103 159.05 521.149 160.897L518.764 165.482C517.465 167.991 516.153 170.542 515.61 173.304C515.068 176.065 515.396 179.158 517.131 181.378C518.395 182.997 520.261 184.014 521.632 185.536C522.454 186.462 523.077 187.549 523.463 188.729C523.848 189.909 523.988 191.157 523.874 192.395C525.43 191.793 525.579 189.675 525.615 187.991C525.682 185.01 526.192 182.057 527.129 179.23C527.673 177.365 528.597 175.635 529.842 174.152C530.47 173.417 531.247 172.825 532.12 172.416C532.993 172.008 533.942 171.791 534.904 171.782C537.289 171.866 539.429 173.526 541.79 173.328C543.579 173.177 545.165 171.944 546.965 171.703C548.553 171.553 550.139 172.006 551.413 172.973C552.674 173.938 553.778 175.095 554.686 176.402C557.941 180.728 560.583 185.8 560.738 191.228C561.411 191.727 562.383 191.077 562.717 190.307C563.051 189.537 563.063 188.634 563.486 187.9C563.975 187.052 564.911 186.601 565.644 185.963C567.505 184.344 567.97 181.619 567.898 179.146C567.827 176.673 567.35 174.164 567.815 171.733C568.095 170.241 568.727 168.845 569.073 167.371C569.418 165.897 569.46 164.243 568.643 162.973C567.451 161.108 564.941 160.741 562.753 160.566C560.267 160.35 558.043 160.627 556.457 158.515C555.712 157.413 554.875 156.378 553.953 155.422C553.619 155.109 550.447 153.124 550.447 152.991Z" fill="#512E4E"/>
<path opacity="0.1" d="M485.28 279.457L479.007 267.904L477.02 285.73C477.02 285.73 478.124 293.647 477.902 294.861C477.68 296.075 482.428 306.958 482.428 306.958C482.428 306.958 498.114 334.787 504.52 336.222L526.161 320.825L520.422 313.565C520.422 313.565 518.435 312.794 517.936 313.565C517.936 313.565 507.281 295.303 506.176 293.982C505.072 292.66 505.288 290.023 505.288 290.023C505.288 290.023 503.631 288.265 504.183 286.615C504.736 284.964 500.984 279.242 500.984 279.242L504.406 276.055L485.28 279.457Z" fill="#2D3137"/>
<path d="M479.464 266.706L477.807 268.019L475.82 285.814C475.82 285.814 476.925 293.718 476.703 294.93C476.481 296.142 481.234 307.007 481.234 307.007C481.234 307.007 496.913 334.79 503.317 336.222L524.961 320.85L519.217 313.603C519.217 313.603 517.23 312.833 516.732 313.603C516.732 313.603 506.078 295.372 504.974 294.053C503.869 292.733 504.091 290.101 504.091 290.101C504.091 290.101 502.435 288.346 502.987 286.698C503.539 285.05 499.782 279.337 499.782 279.337L503.203 276.156L479.464 266.706Z" fill="white"/>
<path opacity="0.1" d="M582.136 335.868C583.366 337.292 582.591 343.683 582.591 343.683L579.197 349.037C579.197 349.037 579.4 352.493 579.412 357.15L573.707 358.849C572.849 359.104 571.92 359.023 571.125 358.626C570.329 358.228 569.732 357.545 569.464 356.728C569.349 356.386 569.297 356.027 569.311 355.668L570.294 325.435L583.581 330.286C582.449 331.035 583.691 332.875 583.691 332.875C583.691 332.875 580.894 334.445 582.136 335.868Z" fill="#2D3137"/>
<path d="M582.235 335.047C583.36 336.52 582.652 343.14 582.652 343.14L579.558 348.663C579.558 348.663 579.744 352.234 579.761 357.06L574.446 358.849C573.677 359.105 572.846 359.022 572.133 358.619C571.421 358.216 570.885 357.524 570.644 356.697C570.544 356.35 570.498 355.987 570.51 355.623L571.415 324.237L583.596 329.257C582.556 330.033 583.692 331.93 583.692 331.93C583.692 331.93 581.111 333.561 582.235 335.047Z" fill="white"/>
<path d="M587.287 320.573C587.287 320.573 586.372 326.084 584.08 326.406C581.788 326.729 580.76 335.321 578.474 335.016C576.189 334.711 577.702 327.028 577.783 325.538C577.864 324.047 575.292 317.873 577.216 316.47C579.141 315.068 585.232 316.47 585.232 316.47L587.287 320.573Z" fill="#CF6F80"/>
<path opacity="0.1" d="M591.768 277.395L596.007 269.103C596.007 269.103 597.693 275.422 597.693 278.798C597.693 282.174 600.05 282.506 600.05 282.506C600.05 282.506 602.634 285.467 601.272 287.623C599.91 289.779 599.36 295.145 599.36 295.145C599.36 295.145 599.806 305.386 597.784 306.801C595.763 308.217 595.341 311.599 595.341 311.599C595.341 311.599 591.628 318.025 591.744 319.553C591.86 321.081 586.577 331.428 586.577 331.428C586.577 331.428 589.16 318.57 574.105 313.014C574.105 313.014 573.989 308.649 575.113 307.453C576.237 306.256 577.989 305.711 576.89 299.664C575.791 293.617 576.572 286.391 576.572 284.94C576.572 283.489 579.944 274.439 579.944 274.439L591.768 277.395Z" fill="#2D3137"/>
<path d="M593.507 267.904L597.205 269.089C597.205 269.089 598.896 275.41 598.896 278.787C598.896 282.164 601.251 282.495 601.251 282.495C601.251 282.495 603.832 285.457 602.472 287.614C601.111 289.77 600.568 295.137 600.568 295.137C600.568 295.137 601.013 305.38 598.993 306.796C596.973 308.212 596.522 311.594 596.522 311.594C596.522 311.594 592.818 318.022 592.934 319.55C593.049 321.079 587.765 331.428 587.765 331.428C587.765 331.428 590.352 318.567 575.304 313.01C575.304 313.01 575.194 308.644 576.317 307.448C577.44 306.251 579.191 305.706 578.093 299.657C576.994 293.609 577.787 286.382 577.787 284.93C577.787 283.479 581.156 274.427 581.156 274.427L593.507 267.904Z" fill="white"/>
<path opacity="0.1" d="M512.977 484.351C512.977 484.351 519.059 480.813 523.05 483.383C527.042 485.953 512.977 484.351 512.977 484.351Z" fill="#2D3137"/>
<path opacity="0.1" d="M558.523 472.895C558.523 472.895 563.311 472.16 567.332 477.325C571.352 482.49 558.523 472.895 558.523 472.895Z" fill="#2D3137"/>
<g opacity="0.1">
<path opacity="0.1" d="M565.545 184.484C564.81 185.117 563.865 185.571 563.374 186.413C562.956 187.135 562.944 188.025 562.609 188.802C562.274 189.578 561.299 190.211 560.623 189.721C560.468 184.347 557.812 179.301 554.553 175.001C553.642 173.703 552.534 172.555 551.269 171.597C549.989 170.636 548.396 170.187 546.802 170.337C545.008 170.582 543.429 171.8 541.616 171.949C539.224 172.152 537.077 170.498 534.703 170.415C533.738 170.423 532.786 170.639 531.911 171.045C531.036 171.452 530.259 172.042 529.631 172.773C528.38 174.242 527.453 175.957 526.91 177.808C525.97 180.614 525.458 183.545 525.391 186.502C525.355 188.169 525.199 190.247 523.656 190.868C523.692 191.309 523.692 191.752 523.656 192.194C525.211 191.596 525.367 189.494 525.403 187.822C525.47 184.864 525.982 181.933 526.922 179.127C527.467 177.276 528.394 175.559 529.643 174.087C530.272 173.358 531.05 172.77 531.925 172.365C532.799 171.959 533.75 171.744 534.715 171.734C537.107 171.818 539.26 173.466 541.628 173.269C543.423 173.12 545.013 171.896 546.814 171.657C548.408 171.507 550.001 171.956 551.281 172.917C552.546 173.875 553.654 175.023 554.565 176.321C557.824 180.614 560.48 185.649 560.635 191.035C561.311 191.531 562.286 190.886 562.621 190.121C562.956 189.357 562.968 188.461 563.386 187.733C563.877 186.891 564.822 186.443 565.557 185.81C567.423 184.203 567.89 181.498 567.818 179.044V178.817C567.704 180.943 567.136 183.111 565.545 184.484Z" fill="#2D3137"/>
<path opacity="0.1" d="M521.394 184.06C520.018 182.549 518.14 181.54 516.878 179.94C515.815 178.523 515.208 176.818 515.138 175.049C514.952 177.259 515.569 179.462 516.878 181.253C518.14 182.86 520.018 183.869 521.394 185.38C522.715 186.858 523.508 188.731 523.649 190.707C523.74 189.504 523.588 188.296 523.2 187.154C522.813 186.012 522.199 184.959 521.394 184.06Z" fill="#2D3137"/>
<path opacity="0.1" d="M568.98 166.032C568.627 167.495 567.999 168.886 567.712 170.361C567.543 171.347 567.48 172.348 567.526 173.347C567.546 172.778 567.608 172.211 567.712 171.651C567.999 170.17 568.627 168.784 568.98 167.321C569.186 166.514 569.252 165.678 569.177 164.849C569.141 165.248 569.076 165.643 568.98 166.032Z" fill="#2D3137"/>
</g>
<path opacity="0.1" d="M405.705 508.816C437.809 508.816 463.835 504.523 463.835 499.227C463.835 493.932 437.809 489.639 405.705 489.639C373.6 489.639 347.574 493.932 347.574 499.227C347.574 504.523 373.6 508.816 405.705 508.816Z" fill="#F7B4C4"/>
<path d="M407.502 320.641H403.906V404.541H407.502V320.641Z" fill="#535461"/>
<path d="M431.445 404.26L431.209 408.055L430.87 413.427L430.731 415.659L430.397 421.03L430.252 423.263L429.913 428.634L426.085 489.553C425.917 492.173 424.742 494.631 422.8 496.428C420.858 498.226 418.294 499.226 415.63 499.227H395.726C393.061 499.226 390.497 498.224 388.555 496.426C386.614 494.627 385.442 492.167 385.277 489.547L381.467 428.592L381.128 423.221L381.006 420.989L380.667 415.617L380.528 413.385L380.189 408.014L379.946 404.218C379.905 403.513 380.006 402.807 380.242 402.141C380.478 401.474 380.845 400.86 381.322 400.334C381.799 399.807 382.377 399.379 383.022 399.072C383.667 398.766 384.368 398.587 385.083 398.548H426.109C426.819 398.553 427.521 398.697 428.176 398.97C428.83 399.242 429.423 399.64 429.921 400.138C430.42 400.637 430.813 401.228 431.08 401.877C431.347 402.525 431.481 403.219 431.476 403.919C431.457 404.033 431.451 404.146 431.445 404.26Z" fill="#3F3D56"/>
<path d="M430.277 408.136L429.943 414.129H380.272L379.938 408.136H430.277Z" fill="#9D9CB5"/>
<path d="M430.274 415.328L429.947 421.321H381.466L381.133 415.328H430.274Z" fill="#9D9CB5"/>
<path d="M429.075 423.718L428.745 428.512H381.458L381.133 423.718H429.075Z" fill="#9D9CB5"/>
<path d="M374.149 351.815C395.989 367.705 405.105 392.555 405.105 392.555C405.105 392.555 378.785 391.647 356.939 375.758C335.093 359.868 326 335.024 326 335.024C326 335.024 352.309 335.926 374.149 351.815Z" fill="#F7B4C4"/>
<path d="M326 335.024C326 335.024 353.317 350.27 362.078 362.893C370.839 375.517 405.105 392.555 405.105 392.555" stroke="#535461" stroke-width="2" stroke-miterlimit="10"/>
<path d="M388.218 320.151C400.125 328.753 405.105 342.215 405.105 342.215C405.105 342.215 390.753 341.724 378.839 333.123C366.925 324.521 361.957 311.052 361.957 311.052C361.957 311.052 376.304 311.543 388.218 320.151Z" fill="#F7B4C4"/>
<path d="M361.957 311.052C361.957 311.052 376.855 319.313 381.631 326.149C386.408 332.985 405.105 342.215 405.105 342.215" stroke="#535461" stroke-width="2" stroke-miterlimit="10"/>
<path d="M422.719 341.424C409.146 356.315 406.305 375.775 406.305 375.775C406.305 375.775 425.442 371.087 439.002 356.19C452.563 341.294 455.446 321.84 455.446 321.84C455.446 321.84 436.291 326.534 422.719 341.424Z" fill="#F7B4C4"/>
<path d="M455.446 321.84C455.446 321.84 437.759 337.106 433.263 347.623C428.767 358.141 406.305 375.775 406.305 375.775" stroke="#535461" stroke-width="2" stroke-miterlimit="10"/>
<path d="M924.079 336.031C924.079 336.031 914.205 286.986 917.985 280.883C917.985 280.883 918.122 275.211 917.895 267.98V267.15C918.56 267.593 919.253 267.992 919.97 268.344C923.454 270.129 927.451 270.644 931.274 269.801L928.284 266.476C927.566 265.681 926.819 264.822 926.663 263.771C926.508 262.72 926.938 261.782 927.309 260.845C930.15 253.68 930.299 244.67 924.827 239.2C920.204 234.603 919.079 228.668 914.061 224.47C910.395 221.395 908.379 216.887 906.478 212.528C904.869 208.844 903.248 205.13 902.327 201.225C901.609 198.174 901.322 195.015 900.335 192.036C899.348 189.056 897.5 186.161 894.611 184.829C893.583 184.357 892.44 184.089 891.501 183.462C890.269 182.632 889.528 181.282 888.636 180.1C884.109 174.129 868.947 177.646 861.77 180.1C859.819 180.712 858.013 181.711 856.459 183.038L856.525 182.93C856.579 182.841 856.645 182.751 856.704 182.662C855.919 183.296 855.24 184.052 854.695 184.901C853.648 186.555 853.211 188.483 852.338 190.275C851.31 192.364 845.43 198.27 847.948 200.658C848.125 200.817 848.327 200.946 848.546 201.04C849.492 201.433 850.532 201.537 851.537 201.339L851.429 201.595C850.563 203.698 850.116 205.95 850.113 208.223C850.113 218.033 858.218 225.987 868.224 225.987C870.105 225.988 871.975 225.7 873.768 225.133C873.81 225.36 873.846 225.587 873.888 225.814C873.896 225.904 873.91 225.994 873.929 226.082L873.612 226.524L873.559 226.446L864.169 239.547C862.733 240.556 854.468 246.527 854.001 251.005C853.511 255.907 853.02 261.645 853.02 261.645L852.954 262.875C852.544 263.217 852.064 263.466 851.547 263.605C851.031 263.744 850.491 263.77 849.964 263.681C847.033 263.203 847.033 274.429 847.033 274.429C847.033 274.429 845.083 276.22 843.744 274.668C842.404 273.115 838.863 278.376 838.863 278.376L816.674 279.331L816.166 279.361L814.97 275.665C814.835 275.285 814.557 274.971 814.196 274.791C813.835 274.61 813.417 274.577 813.032 274.697C812.939 274.727 812.848 274.765 812.763 274.811L812.679 274.859L812.523 274.966L812.446 275.038L812.326 275.163L812.254 275.247L812.218 275.283C812.08 275.473 811.989 275.694 811.951 275.926C811.914 276.158 811.932 276.396 812.003 276.62L813.032 279.791C808.749 280.65 804.371 283.075 807.942 289.75L789.844 286.412L795.699 291.321L825.927 297.548C825.526 298.265 825.789 299.304 827.039 300.767C832.422 307.078 842.231 308.791 846.178 309.233C847.219 311.562 848.522 313.765 850.06 315.801L849.719 322.089C849.719 322.089 839.725 370.011 837.894 372.442C838.818 371.396 839.664 370.285 840.424 369.116C837.524 378.962 833.469 392.438 832.404 394.456C830.693 397.681 829.108 410.727 831.058 411.563C831.656 411.82 833.367 411.694 835.807 411.509V412.59L835.699 453.545C835.699 453.545 836.19 478.664 834.844 481.059C833.498 483.453 833.14 488.457 833.14 488.457C833.14 488.457 827.757 498.362 823.492 502.345C823.463 502.376 823.431 502.404 823.397 502.429L823.265 501.497C823.265 501.497 818.139 507.958 806.8 507.593C806.8 507.593 799.975 512.024 810.095 512.263C820.215 512.502 833.14 511.904 833.14 511.904C833.14 511.904 842.165 498.171 849.725 499.963V510.37H852.039V499.801C853.113 499.096 854.032 498.181 854.74 497.11C855.449 496.039 855.932 494.836 856.16 493.574C856.358 492.272 856.212 490.942 855.738 489.714C855.264 488.486 854.478 487.402 853.457 486.57C852.998 486.156 852.629 485.651 852.375 485.088C852.121 484.525 851.986 483.915 851.979 483.298L851.896 483.369C851.881 483.153 851.855 482.938 851.818 482.725C851.154 477.351 850.323 466.263 853.259 458.059C857.285 446.809 858.505 431.142 855.574 421.815C854.628 418.834 853.852 415.802 853.247 412.733C853.176 412.345 853.11 411.975 853.05 411.629C855.054 411.898 857.037 412.297 858.989 412.823C865.777 414.692 880.628 415.038 893.308 414.937C893.308 415.283 893.373 415.647 893.415 416.011C893.643 418.543 894.115 421.047 894.827 423.487C896.418 428.264 897.147 449.323 897.147 449.323C897.147 449.323 899.199 466.639 898.08 473.685C897.482 477.602 896.884 481.536 896.543 485.489V485.567C896.543 485.567 893.182 495.12 890.724 500.309C890.664 500.44 890.598 500.572 890.538 500.697C889.883 500.757 889.238 500.9 888.619 501.121C888.619 501.121 885.323 507.689 882.04 508.776C878.756 509.862 879.845 513.439 887.279 512.125C894.713 510.812 905.939 509.737 905.939 509.737L906.424 503.038L908.708 500.184L908.11 506.865L910.521 506.369L910.198 498.243L913.936 493.574C913.936 493.574 918.451 489.561 911.741 481.668V481.841C911.669 481.727 911.603 481.608 911.525 481.495V481.459C910.413 479.739 909.528 476.533 911.149 470.842C914.079 460.56 915.784 451.228 915.784 451.228C915.784 451.228 922.327 426.228 914.462 414.399H914.809C914.003 412.735 913.433 410.966 913.116 409.145C913.072 408.93 913.037 408.709 913.009 408.482C918.828 408.148 924.54 407.097 929.199 404.828C929.205 404.804 926.4 345.477 924.079 336.031ZM850.197 294.652V294.772L849.001 294.831L850.197 294.652ZM846.094 295.22C845.897 295.262 845.713 295.35 845.556 295.476C845.042 296.203 844.719 297.047 844.617 297.93L842.751 297.512C842.751 297.512 841.441 297.232 839.557 296.915L838.666 296.02C841.142 295.817 843.666 295.518 846.094 295.22Z" fill="url(#paint1_linear_217_1728)"/>
<path d="M908.014 498.164L907.305 507.617L909.702 507.083L909.341 496.83L908.014 498.164Z" fill="#D7E1F3"/>
<path d="M853.162 458.405C850.319 466.523 851.123 477.48 851.761 482.802C851.998 484.769 852.216 485.966 852.216 485.966C852.216 485.966 847.965 495.672 847.611 496.04C847.256 496.407 835.1 503.844 835.1 503.844L826.603 508.816C826.603 508.816 817.994 505.029 822.133 503.726C822.978 503.386 823.739 502.867 824.362 502.203C828.501 498.262 833.698 488.467 833.698 488.467C833.698 488.467 834.053 483.495 835.354 481.13C836.655 478.766 836.182 453.919 836.182 453.919L836.282 413.416V408.136L852.453 408.255C852.555 410.047 852.789 411.83 853.151 413.588C853.73 416.623 854.482 419.623 855.403 422.572C858.235 431.81 857.053 447.282 853.162 458.405Z" fill="#F7B4C4"/>
<path opacity="0.1" d="M852.171 485.644C852.171 485.644 847.926 495.487 847.571 495.86C847.217 496.232 835.079 503.774 835.079 503.774L826.595 508.816C826.595 508.816 817.999 504.976 822.132 503.654C822.975 503.31 823.734 502.783 824.357 502.109L824.723 504.735L827.551 504.615L851.757 482.447C851.952 484.43 852.171 485.644 852.171 485.644Z" fill="#2D3137"/>
<path d="M851.641 483.646L827.12 505.717L824.271 505.836L823.677 501.676C823.677 501.676 818.693 508.083 807.619 507.726C807.619 507.726 800.97 512.118 810.825 512.355C820.679 512.593 833.264 511.999 833.264 511.999C833.264 511.999 842.054 498.331 849.41 500.113V510.436H851.67V500.018C852.721 499.311 853.617 498.399 854.306 497.337C854.995 496.275 855.462 495.085 855.679 493.838C855.875 492.553 855.737 491.24 855.277 490.024C854.818 488.808 854.053 487.731 853.056 486.897C852.612 486.479 852.257 485.976 852.014 485.417C851.771 484.858 851.644 484.255 851.641 483.646Z" fill="#D7E1F3"/>
<path d="M909.989 470.789C908.423 476.46 909.276 479.653 910.348 481.366V481.402C911.722 483.517 912.678 485.883 913.162 488.368L913.257 488.905L902.211 505.23L896.218 507.617C896.218 507.617 886.579 504.281 888.34 503.326C888.781 503.093 889.47 501.851 890.259 500.138C892.614 494.975 895.864 485.449 895.864 485.449V485.347C896.206 481.414 896.747 477.492 897.348 473.589C898.425 466.563 896.447 449.319 896.447 449.319C896.447 449.319 895.741 428.351 894.21 423.582C893.521 421.157 893.062 418.67 892.838 416.157C892.52 413.172 892.449 410.713 892.449 410.713C892.449 410.713 898.796 401.76 910.43 411.429C911.361 412.2 912.18 413.1 912.862 414.103C920.899 425.695 914.428 451.23 914.428 451.23C914.428 451.23 912.809 460.541 909.989 470.789Z" fill="#F7B4C4"/>
<path opacity="0.1" d="M913.295 488.923L902.233 505.232L896.23 507.617C896.23 507.617 886.577 504.284 888.34 503.33C888.782 503.097 889.472 501.857 890.262 500.146C894.349 500.11 896.466 504.046 896.466 504.046L901.643 503.211C901.643 503.211 908.471 489.639 910.005 488.81C911.538 487.981 910.24 482.615 910.24 482.615V481.249C910.282 481.297 910.317 481.35 910.364 481.398V481.434C911.74 483.547 912.698 485.91 913.183 488.393L913.295 488.923Z" fill="#2D3137"/>
<path d="M896.775 504.785C896.775 504.785 893.758 499.423 887.979 501.403C887.979 501.403 884.728 507.829 881.476 508.869C878.224 509.909 879.31 513.414 886.658 512.134C894.006 510.855 905.082 509.798 905.082 509.798L905.564 503.261L913.033 494.049C913.033 494.049 917.485 490.141 910.861 482.447V483.808C910.861 483.808 912.188 489.066 910.62 489.878C909.051 490.69 902.089 503.991 902.089 503.991L896.775 504.785Z" fill="#D7E1F3"/>
<path opacity="0.1" d="M852.673 408.241C852.774 409.817 853.006 411.384 853.366 412.931C846.75 412.071 840.611 412.498 836.586 412.78V408.136L852.673 408.241Z" fill="#2D3137"/>
<path opacity="0.1" d="M913.297 415.943C913.297 415.943 903.639 416.427 892.121 416.526C891.795 413.422 891.723 410.864 891.723 410.864C891.723 410.864 898.23 401.552 910.158 411.609C911.112 412.411 911.951 413.348 912.651 414.391C912.839 414.92 913.054 415.438 913.297 415.943Z" fill="#2D3137"/>
<path d="M913.295 414.758C913.295 414.758 871.488 416.78 858.745 413.206C846.003 409.632 833.374 412.729 831.471 411.9C829.568 411.07 831.113 398.081 832.783 394.865C834.453 391.649 843.617 359.125 843.617 359.125L852.434 313.146L861.722 310.587L862.378 310.402L878.563 305.944L890.446 302.663C890.446 302.663 914.028 394.746 912.006 401.536C911.272 404.136 911.153 406.871 911.66 409.525C911.961 411.336 912.511 413.097 913.295 414.758Z" fill="#D7E1F3"/>
<path d="M821.924 282.287C821.924 282.287 813.353 290.85 819.842 295.622C826.331 300.395 830.598 296.079 830.598 296.079L821.924 282.287Z" fill="#C7DAF5"/>
<path opacity="0.1" d="M821.924 282.287C821.924 282.287 813.353 290.85 819.842 295.622C826.331 300.395 830.598 296.079 830.598 296.079L821.924 282.287Z" fill="#2D3137"/>
<path d="M889.322 222.907C889.322 222.907 888.338 223.827 886.855 225.184C884.742 227.125 881.615 229.962 878.841 232.34C874.999 235.625 871.83 238.038 872.965 235.979C874.099 233.921 873.883 230.334 873.319 226.977C873.277 226.753 873.241 226.529 873.199 226.311C872.731 223.846 872.112 221.411 871.344 219.019C871.344 219.019 877.551 211.138 880.996 208.029C882.275 206.849 883.169 206.366 883.223 207.186C883.283 208.289 884.124 210.725 885.168 213.309C885.198 213.392 885.228 213.468 885.264 213.551C885.961 215.321 886.747 217.138 887.437 218.707C888.482 221.114 889.322 222.907 889.322 222.907Z" fill="#F7B4C4"/>
<path opacity="0.1" d="M885.727 213.606C885.123 216.717 883.659 219.615 881.488 221.998C879.318 224.381 876.519 226.161 873.386 227.153C872.892 224.436 872.21 221.754 871.344 219.124C871.344 219.124 883.43 204.148 883.616 207.184C883.659 208.315 884.603 210.88 885.727 213.606Z" fill="#2D3137"/>
<path opacity="0.1" d="M872.14 230.479L873.646 228.352C873.646 228.352 874.643 234.452 878.311 231.761C881.979 229.071 882.135 252.01 882.135 252.01L878.198 311.053L849.773 309.357L850.58 280.827L853.8 266.445L861.763 245.538L866.501 238.646L872.14 230.479Z" fill="#2D3137"/>
<path d="M882.135 252.874L878.551 305.479L878.175 311.053L862.317 310.114L861.719 310.078L849.773 309.37L850.604 281.269L853.823 267.098L861.785 246.497L866.522 239.689L872.16 231.641L873.665 229.55C873.665 229.55 874.663 235.561 878.33 232.91L878.408 232.857C881.991 230.595 882.135 252.874 882.135 252.874Z" fill="#D7E1F3"/>
<path d="M854.438 261.912C854.438 261.912 853.004 264.902 850.124 264.418C847.244 263.933 847.25 275.183 847.25 275.183C847.25 275.183 845.336 276.977 844.016 275.422C842.696 273.867 839.217 279.125 839.217 279.125L817.414 280.075C817.414 280.075 827.115 284.495 825.214 297.869C825.214 297.869 858.151 295.835 859.231 292.731C860.311 289.627 854.438 261.912 854.438 261.912Z" fill="white"/>
<path opacity="0.03" d="M854.438 261.912C854.438 261.912 853.004 264.902 850.124 264.418C847.244 263.933 847.25 275.183 847.25 275.183C847.25 275.183 845.336 276.977 844.016 275.422C842.696 273.867 839.217 279.125 839.217 279.125L817.414 280.075C817.414 280.075 827.115 284.495 825.214 297.869C825.214 297.869 858.151 295.835 859.231 292.731C860.311 289.627 854.438 261.912 854.438 261.912Z" fill="#2D3137"/>
<path d="M791.043 287.081L796.761 292.231L843.78 302.663L837.949 296.38L791.043 287.081Z" fill="white"/>
<path d="M872.168 232.723C871.379 233.92 869.12 240.053 867.235 245.406C865.663 249.868 864.35 253.791 864.35 253.791C864.35 253.791 861.285 273.637 859.719 277.224C858.153 280.811 859.002 294.801 859.002 294.801L853.167 329.349C853.167 329.349 850.523 347.166 846.439 357.807C842.41 368.282 837.924 373.192 837.785 373.378C839.592 370.947 849.439 323.073 849.439 323.073L852.691 262.696C852.691 262.696 853.167 256.959 853.648 252.054C854.13 247.149 863.887 240.454 863.887 240.454L873.294 227.153C874.239 228.381 873.607 230.573 872.168 232.723Z" fill="white"/>
<path d="M847.844 309.854C847.844 309.854 833.852 309.258 827.076 301.281C820.299 293.305 842.74 298.098 842.74 298.098L848.574 299.409L847.844 309.854Z" fill="#F7B4C4"/>
<path opacity="0.1" d="M911.975 401.131C911.241 403.732 911.123 406.468 911.629 409.123C896.674 410.185 880.676 406.138 880.676 406.138C877.696 408.884 869.846 412.931 869.846 412.931L865.567 359.812C862.831 352.65 861.758 315.126 861.758 315.126C861.758 315.126 862.002 313.163 862.354 310.22C862.34 310.147 862.34 310.072 862.354 309.999C863.421 301.781 865.537 286.353 866.574 284.27C868.004 281.405 862.175 273.783 862.175 273.783L864.827 251.103L865.149 248.37C870.74 245.869 875.026 237.883 875.026 237.883L878.316 232.112C881.892 229.814 882.077 252.333 882.077 252.333L878.501 305.505L890.35 302.229C890.35 302.229 913.996 394.339 911.975 401.131Z" fill="#2D3137"/>
<path d="M927.68 405.551C911.41 413.646 881.838 406.147 881.838 406.147C878.864 408.889 871.03 412.931 871.03 412.931L866.752 359.881C864.028 352.728 862.957 315.254 862.957 315.254C862.957 315.254 866.395 287.293 867.823 284.437C868.24 283.603 868.037 282.363 867.544 281.028C865.12 274.678 864.227 267.845 864.938 261.084L866.08 251.362L866.395 248.638C871.981 246.134 876.258 238.159 876.258 238.159L879.233 232.938L884.706 223.317L887.317 218.763L887.757 219.163L891.118 222.214L894.688 225.195C899.346 229.129 907.394 236.055 911.547 240.293C915.199 244.024 916.353 258.538 916.686 269.464C916.906 276.659 916.776 282.298 916.776 282.298C913.093 288.371 922.724 337.135 922.724 337.135C924.949 346.541 927.68 405.551 927.68 405.551Z" fill="white"/>
<path opacity="0.03" d="M896.079 237.584C896.079 237.584 884.949 258.897 886.241 267.03C887.534 275.164 891.211 284.318 889.438 286.462C888.83 287.276 888.043 287.937 887.138 288.392C886.234 288.847 885.236 289.083 884.225 289.084C882.446 289.203 877.702 292.541 877.702 292.9C877.702 293.258 873.32 293.258 869.4 294.93C865.48 296.602 859.699 297.552 859.699 297.552C859.699 297.552 848.431 297.193 847.382 298.268C846.332 299.343 845.253 305.775 847.5 310.904C849.748 316.034 852.244 319.862 854.13 320.56C856.016 321.259 867.983 317.222 877.69 316.267C887.398 315.311 897.935 307.566 897.935 307.566C897.935 307.566 909.541 303.386 911.575 296.357C913.609 289.329 909.09 250.698 909.09 250.698C909.09 250.698 905.668 232.693 896.079 237.584Z" fill="#2D3137"/>
<path opacity="0.03" d="M894.92 235.185C894.92 235.185 883.778 256.528 885.084 264.632C886.39 272.736 890.058 281.92 888.277 284.07C887.67 284.883 886.883 285.543 885.978 285.998C885.074 286.453 884.077 286.691 883.066 286.692C881.285 286.811 876.536 290.15 876.536 290.508C876.536 290.866 872.149 290.866 868.225 292.532C864.301 294.198 858.508 295.154 858.508 295.154C858.508 295.154 847.229 294.796 846.184 295.871C845.14 296.945 844.047 303.383 846.303 308.507C848.559 313.631 851.052 317.465 852.94 318.163C854.827 318.862 866.807 314.825 876.524 313.876C886.241 312.926 896.76 305.169 896.76 305.169C896.76 305.169 908.371 300.988 910.383 293.966C912.396 286.943 907.896 248.299 907.896 248.299C907.896 248.299 904.489 230.3 894.92 235.185Z" fill="#2D3137"/>
<path d="M895.779 236.377C895.779 236.377 884.453 257.722 885.775 265.826C887.097 273.931 890.835 283.116 889.029 285.26C888.411 286.075 887.61 286.737 886.689 287.193C885.768 287.649 884.752 287.887 883.722 287.888C881.911 288.007 877.081 291.346 877.081 291.698C877.081 292.051 872.625 292.056 868.628 293.729C864.631 295.401 858.745 296.351 858.745 296.351C858.745 296.351 847.273 295.992 846.204 297.067C845.136 298.142 844.037 304.58 846.325 309.705C848.613 314.829 851.155 318.663 853.075 319.362C854.995 320.06 867.179 316.023 877.063 315.068C886.946 314.112 897.675 306.366 897.675 306.366C897.675 306.366 909.491 302.185 911.562 295.156C913.633 288.127 909.062 249.492 909.062 249.492C909.062 249.492 905.536 231.516 895.779 236.377Z" fill="white"/>
<path opacity="0.1" d="M895.363 293.606C895.363 293.606 887.04 291.82 889.936 294.796C892.833 297.773 892.816 300.381 896.361 300.262C899.907 300.143 895.363 293.606 895.363 293.606Z" fill="#2D3137"/>
<path opacity="0.1" d="M910.725 357.797C910.725 357.797 906.814 360.591 914.296 367.031C921.778 373.471 910.725 357.797 910.725 357.797Z" fill="#2D3137"/>
<path opacity="0.1" d="M902.692 380.569C902.692 380.93 901.204 393.781 906.773 396.994C912.343 400.207 902.692 380.569 902.692 380.569Z" fill="#2D3137"/>
<path d="M817.935 279.89C813.639 280.049 804.357 281.453 809.17 291.067C813.425 299.575 820.576 293.888 824.6 289.574C823.621 285.55 821.235 282.083 817.935 279.89Z" fill="#F7B4C4"/>
<path opacity="0.1" d="M894.117 225.16C889.52 228.266 885.666 230.888 884.912 231.432C882.853 232.941 878.926 241.799 876.395 246.32C874.377 249.959 867.824 250.894 865.352 251.124L865.669 248.42C871.289 245.935 875.592 238.018 875.592 238.018L886.719 218.763L890.544 222.201L894.117 225.16Z" fill="#2D3137"/>
<path d="M894.117 225.141C889.52 228.249 885.666 230.873 884.912 231.423C882.853 232.928 878.926 241.792 876.395 246.316C874.377 249.958 867.824 250.893 865.352 251.124L865.669 248.418C871.289 245.931 875.592 238.008 875.592 238.008L886.719 218.763L890.544 222.192C890.544 222.192 891.962 223.341 894.117 225.141Z" fill="#DCE7FF"/>
<path d="M885.73 209.166C885.732 213.185 884.388 217.088 881.911 220.253C879.435 223.418 875.97 225.662 872.069 226.627C868.168 227.592 864.056 227.222 860.39 225.577C856.724 223.931 853.715 221.105 851.843 217.549C849.971 213.993 849.345 209.913 850.063 205.959C850.782 202.005 852.805 198.406 855.808 195.737C858.812 193.067 862.623 191.481 866.634 191.231C870.645 190.981 874.624 192.082 877.935 194.358C880.337 196.01 882.302 198.221 883.66 200.8C885.018 203.38 885.729 206.251 885.73 209.166Z" fill="#F7B4C4"/>
<path opacity="0.1" d="M916.894 269.103C914.436 267.599 912.435 265.46 911.102 262.914C910.092 260.927 909.42 258.633 907.695 257.225C906.14 255.96 904.064 255.653 902.128 255.087C895.761 253.215 890.424 247.435 890.224 240.837C890.127 237.731 891.101 234.63 890.66 231.554C890.406 229.813 889.71 228.166 888.638 226.767C888.105 226.099 887.52 225.473 886.889 224.895C886.042 224.1 885.153 223.33 884.378 222.487C883.889 221.965 883.463 221.39 883.107 220.771C882.819 220.266 882.585 219.731 882.411 219.176C881.201 215.491 882.302 211.12 880.971 207.394L880.898 207.189C880.396 205.865 879.373 204.54 877.951 204.438C876.529 204.336 875.313 205.51 873.957 206.033C871.119 207.129 868.057 205.263 865.69 203.36C863.324 201.458 860.655 199.284 857.648 199.706C855.657 199.989 854.083 201.337 852.25 202.036C851.835 202.194 851.408 202.317 850.973 202.403C852.524 198.553 855.376 195.361 859.036 193.375C862.697 191.389 866.938 190.733 871.032 191.52C875.126 192.308 878.816 194.488 881.469 197.688C884.122 200.888 885.572 204.908 885.57 209.056C885.573 210.308 885.441 211.557 885.177 212.782C885.207 212.866 885.237 212.945 885.274 213.029C885.976 214.835 886.768 216.689 887.464 218.291L890.884 221.373L894.515 224.383C899.253 228.357 907.441 235.352 911.665 239.633C915.381 243.438 916.543 258.091 916.894 269.103Z" fill="#2D3137"/>
<path d="M852.321 191.51C853.182 189.764 853.61 187.808 854.641 186.152C856.153 183.752 858.792 182.216 861.504 181.286C868.584 178.856 883.546 175.328 888.017 181.286C888.896 182.486 889.626 183.818 890.843 184.646C891.771 185.246 892.892 185.546 893.91 186.02C896.76 187.352 898.58 190.256 899.55 193.22C900.52 196.184 900.809 199.365 901.52 202.419C902.43 206.337 904.027 210.051 905.618 213.741C907.492 218.097 909.48 222.615 913.096 225.693C918.031 229.893 919.121 235.839 923.701 240.447C929.124 245.919 928.949 254.949 926.153 262.119C925.786 263.061 925.37 264.045 925.514 265.047C925.659 266.049 926.406 266.961 927.111 267.759L930.076 271.089C923.062 272.775 915.126 269.127 911.86 262.725C910.854 260.745 910.185 258.465 908.462 257.055C906.919 255.795 904.846 255.495 902.924 254.931C896.585 253.059 891.271 247.293 891.072 240.717C890.975 237.627 891.946 234.537 891.506 231.477C891.261 229.73 890.565 228.076 889.487 226.677C887.83 224.523 885.329 223.077 883.98 220.677C881.696 216.663 883.431 211.449 881.786 207.141C881.28 205.821 880.268 204.501 878.852 204.399C877.436 204.297 876.225 205.467 874.869 205.989C872.049 207.081 869 205.227 866.644 203.325C864.288 201.423 861.63 199.263 858.63 199.689C856.647 199.965 855.086 201.309 853.261 202.011C851.911 202.527 849.175 202.989 847.994 201.855C845.5 199.569 851.278 193.646 852.321 191.51Z" fill="#591D4B"/>
<path opacity="0.1" d="M913.668 260.738C912.655 258.762 911.992 256.487 910.269 255.086C908.726 253.829 906.653 253.523 904.725 252.961C898.392 251.099 893.077 245.345 892.872 238.783C892.776 235.699 893.746 232.61 893.312 229.556C893.06 227.824 892.365 226.185 891.293 224.796C889.63 222.647 887.13 221.204 885.786 218.809C883.502 214.809 885.238 209.606 883.586 205.302C883.086 203.99 882.068 202.673 880.658 202.565C879.248 202.458 878.025 203.637 876.675 204.158C873.855 205.248 870.8 203.392 868.449 201.5C866.099 199.608 863.43 197.446 860.435 197.865C858.453 198.147 856.886 199.488 855.066 200.182C853.716 200.697 850.974 201.164 849.793 200.033C847.311 197.638 853.09 191.74 854.126 189.621C854.988 187.872 855.416 185.927 856.452 184.274C856.506 184.184 856.566 184.094 856.627 184.005C855.851 184.643 855.182 185.398 854.644 186.244C853.614 187.896 853.186 189.836 852.324 191.591C851.282 193.71 845.503 199.626 847.992 202.003C849.197 203.14 851.908 202.673 853.258 202.158C855.066 201.458 856.645 200.117 858.627 199.841C861.64 199.416 864.292 201.577 866.642 203.469C868.992 205.361 872.065 207.217 874.873 206.128C876.223 205.607 877.404 204.433 878.85 204.541C880.296 204.649 881.26 205.96 881.785 207.277C883.43 211.576 881.694 216.779 883.978 220.785C885.328 223.138 887.829 224.611 889.486 226.772C890.564 228.168 891.26 229.819 891.504 231.562C891.944 234.615 890.974 237.699 891.071 240.782C891.269 247.368 896.584 253.098 902.923 254.966C904.834 255.529 906.919 255.829 908.461 257.086C910.191 258.493 910.872 260.768 911.86 262.744C915.126 269.132 923.062 272.773 930.076 271.09L928.678 269.522C922.598 269.611 916.445 266.175 913.668 260.738Z" fill="#2D3137"/>
<path opacity="0.1" d="M872.22 233.07C871.454 234.322 869.259 240.733 867.427 246.33C865.713 245.616 864.156 241.065 864.156 241.065L873.297 227.153C874.233 228.53 873.619 230.816 872.22 233.07Z" fill="#2D3137"/>
<path d="M872.22 232.696C871.454 233.87 869.259 239.882 867.427 245.132C865.713 244.468 864.156 240.194 864.156 240.194L873.297 227.153C874.233 228.439 873.619 230.588 872.22 232.696Z" fill="#DCE7FF"/>
<path d="M818.022 294.107L812.693 277.16C812.629 276.962 812.606 276.753 812.622 276.546C812.639 276.339 812.696 276.137 812.791 275.952C812.885 275.767 813.015 275.602 813.172 275.468C813.329 275.333 813.512 275.231 813.708 275.168C814.105 275.043 814.534 275.081 814.903 275.274C815.272 275.467 815.55 275.799 815.678 276.198L821.007 293.127L820.478 296.67L818.022 294.107Z" fill="#BE8B87"/>
<path opacity="0.1" d="M812.953 275.646C813.362 275.519 813.806 275.556 814.187 275.749C814.569 275.942 814.856 276.276 814.987 276.676L820.475 293.604L820.063 296.26L820.462 296.67L821.007 293.127L815.488 276.198C815.357 275.799 815.07 275.467 814.69 275.274C814.311 275.081 813.868 275.043 813.46 275.168C813.117 275.279 812.821 275.497 812.617 275.788C812.725 275.732 812.837 275.684 812.953 275.646Z" fill="white"/>
<path d="M817.414 294.044L821.01 293.074L820.477 296.021L820.374 296.67L819.316 295.738L817.414 294.044Z" fill="#EFC8C4"/>
<path d="M819.809 295.696C819.871 295.621 819.952 295.56 820.045 295.518C820.099 295.488 820.161 295.471 820.225 295.471C820.288 295.471 820.35 295.488 820.404 295.518C820.458 295.573 820.502 295.636 820.534 295.703C820.585 295.779 820.654 295.843 820.735 295.891C820.817 295.94 820.91 295.972 821.007 295.984L820.893 296.67L819.809 295.696Z" fill="#727A9C"/>
<path d="M812.617 283.486C812.617 283.486 823.099 283.424 820.631 287.975C818.163 292.526 814.307 293.074 814.307 293.074L812.617 283.486Z" fill="#F7B4C4"/>
<path d="M747.919 85.7224H747.47C729.625 85.7224 713.843 95.0989 704.765 108.935C695.687 95.0989 679.904 85.7224 662.059 85.7224H661.61C648.213 85.8492 635.407 91.223 625.979 100.675C616.55 110.127 611.261 122.893 611.262 136.197C611.262 152.712 618.546 176.144 632.749 195.425C659.81 232.165 704.765 264.309 704.765 264.309C704.765 264.309 749.719 232.171 776.774 195.425C790.984 176.114 798.238 152.682 798.238 136.168C798.231 122.874 792.942 110.12 783.521 100.675C774.1 91.23 761.306 85.8569 747.919 85.7224ZM741.502 198.222C739.47 198.214 737.487 197.597 735.815 196.45C734.142 195.303 732.858 193.681 732.131 191.797H721.462C720.759 191.793 720.076 191.57 719.506 191.162C718.937 190.753 718.511 190.178 718.286 189.517L715.009 179.713L704.639 215.692C704.433 216.38 704.008 216.983 703.428 217.411C702.848 217.839 702.144 218.069 701.422 218.068H701.212C700.455 218.031 699.732 217.738 699.166 217.236C698.6 216.735 698.225 216.056 698.103 215.312L687.416 151.518L679.605 189.285C679.426 190.002 679.01 190.64 678.424 191.095C677.837 191.55 677.114 191.797 676.37 191.797H661.341C660.901 191.817 660.462 191.751 660.048 191.602C659.634 191.454 659.254 191.225 658.929 190.93C658.604 190.635 658.341 190.279 658.155 189.883C657.969 189.486 657.864 189.057 657.845 188.621C657.827 188.184 657.895 187.748 658.047 187.337C658.199 186.927 658.431 186.55 658.73 186.229C659.028 185.908 659.388 185.648 659.788 185.466C660.188 185.283 660.62 185.18 661.06 185.164H673.739L684.802 134.386C684.984 133.635 685.422 132.971 686.043 132.505C686.664 132.04 687.428 131.804 688.205 131.836C688.982 131.868 689.723 132.167 690.302 132.682C690.882 133.197 691.263 133.896 691.381 134.659L702.295 199.766L711.588 167.575C711.782 166.897 712.191 166.299 712.755 165.871C713.318 165.443 714.006 165.207 714.716 165.2H714.782C715.485 165.2 716.17 165.42 716.739 165.83C717.308 166.239 717.732 166.817 717.951 167.48L723.878 185.182H731.999C732.577 183.44 733.628 181.89 735.036 180.704C736.444 179.518 738.155 178.741 739.98 178.459C741.805 178.177 743.673 178.402 745.378 179.108C747.082 179.813 748.557 180.973 749.64 182.459C750.723 183.944 751.371 185.698 751.513 187.527C751.656 189.355 751.286 191.187 750.446 192.82C749.606 194.453 748.328 195.824 746.753 196.782C745.178 197.739 743.367 198.246 741.52 198.246L741.502 198.222Z" fill="#F7B4C4"/>
</g>
</g>
<defs>
<filter id="filter0_d_217_1728" x="-4" y="0" width="1368" height="550" filterUnits="userSpaceOnUse" color-interpolation-filters="sRGB">
<feFlood flood-opacity="0" result="BackgroundImageFix"/>
<feColorMatrix in="SourceAlpha" type="matrix" values="0 0 0 0 0 0 0 0 0 0 0 0 0 0 0 0 0 0 127 0" result="hardAlpha"/>
<feOffset dy="4"/>
<feGaussianBlur stdDeviation="2"/>
<feComposite in2="hardAlpha" operator="out"/>
<feColorMatrix type="matrix" values="0 0 0 0 0 0 0 0 0 0 0 0 0 0 0 0 0 0 0.25 0"/>
<feBlend mode="normal" in2="BackgroundImageFix" result="effect1_dropShadow_217_1728"/>
<feBlend mode="normal" in="SourceGraphic" in2="effect1_dropShadow_217_1728" result="shape"/>
</filter>
<linearGradient id="paint0_linear_217_1728" x1="539.343" y1="517.23" x2="539.343" y2="150.386" gradientUnits="userSpaceOnUse">
<stop stop-color="#808080" stop-opacity="0.25"/>
<stop offset="0.54" stop-color="#808080" stop-opacity="0.12"/>
<stop offset="1" stop-color="#808080" stop-opacity="0.1"/>
</linearGradient>
<linearGradient id="paint1_linear_217_1728" x1="133835" y1="-14532.5" x2="133835" y2="174084" gradientUnits="userSpaceOnUse">
<stop stop-color="#808080" stop-opacity="0.25"/>
<stop offset="0.54" stop-color="#808080" stop-opacity="0.12"/>
<stop offset="1" stop-color="#808080" stop-opacity="0.1"/>
</linearGradient>
<clipPath id="clip0_217_1728">
<rect width="708.352" height="501" fill="white" transform="translate(326 21)"/>
</clipPath>
</defs>
</svg>
