<svg width="56" height="56" viewBox="0 0 56 56" fill="none" xmlns="http://www.w3.org/2000/svg">
<g filter="url(#filter0_d_169_1484)">
<path d="M28 48C41.2548 48 52 37.2548 52 24C52 10.7452 41.2548 0 28 0C14.7452 0 4 10.7452 4 24C4 37.2548 14.7452 48 28 48Z" fill="#F51A24"/>
<path d="M35.4529 14.9221C34.5336 14.9221 33.7949 15.6608 33.7949 16.5801C33.7949 17.4994 34.5336 18.2381 35.4529 18.2381C36.3722 18.2381 37.1109 17.4994 37.1109 16.5801C37.0945 15.6608 36.3558 14.9221 35.4529 14.9221Z" fill="white"/>
<path d="M28.115 17.0398C24.2901 17.0398 21.1875 20.1424 21.1875 23.9673C21.1875 27.7922 24.2901 30.8948 28.115 30.8948C31.9399 30.8948 35.0425 27.7922 35.0425 23.9673C35.0425 20.1424 31.9399 17.0398 28.115 17.0398ZM28.115 28.416C25.669 28.416 23.6827 26.4297 23.6827 23.9837C23.6827 21.5377 25.669 19.5514 28.115 19.5514C30.561 19.5514 32.5473 21.5377 32.5473 23.9837C32.5473 26.4297 30.561 28.416 28.115 28.416Z" fill="white"/>
<path d="M33.6143 38.0357H22.3858C17.7237 38.0357 13.9316 34.2437 13.9316 29.5816V18.3531C13.9316 13.691 17.7237 9.89893 22.3858 9.89893H33.6143C38.2764 9.89893 42.0684 13.691 42.0684 18.3531V29.5816C42.0684 34.2437 38.2764 38.0357 33.6143 38.0357ZM22.3858 12.5419C19.1847 12.5419 16.5746 15.152 16.5746 18.3531V29.5816C16.5746 32.7826 19.1847 35.3928 22.3858 35.3928H33.6143C36.8154 35.3928 39.4255 32.7826 39.4255 29.5816V18.3531C39.4255 15.152 36.8154 12.5419 33.6143 12.5419H22.3858Z" fill="white"/>
</g>
<defs>
<filter id="filter0_d_169_1484" x="0" y="0" width="56" height="56" filterUnits="userSpaceOnUse" color-interpolation-filters="sRGB">
<feFlood flood-opacity="0" result="BackgroundImageFix"/>
<feColorMatrix in="SourceAlpha" type="matrix" values="0 0 0 0 0 0 0 0 0 0 0 0 0 0 0 0 0 0 127 0" result="hardAlpha"/>
<feOffset dy="4"/>
<feGaussianBlur stdDeviation="2"/>
<feComposite in2="hardAlpha" operator="out"/>
<feColorMatrix type="matrix" values="0 0 0 0 0 0 0 0 0 0 0 0 0 0 0 0 0 0 0.25 0"/>
<feBlend mode="normal" in2="BackgroundImageFix" result="effect1_dropShadow_169_1484"/>
<feBlend mode="normal" in="SourceGraphic" in2="effect1_dropShadow_169_1484" result="shape"/>
</filter>
</defs>
</svg>
